<svg width="169" height="45" viewBox="0 0 169 45" fill="none" xmlns="http://www.w3.org/2000/svg">
<path d="M21.0968 6.8864C20.492 6.28689 19.7715 5.81136 18.9774 5.48751C18.1833 5.16365 17.3314 4.99794 16.4714 5.00002C15.6113 4.99794 14.7594 5.16365 13.9653 5.48751C13.1712 5.81136 12.4508 6.28689 11.846 6.8864L11.477 7.2611L11.108 6.89932C9.88471 5.70005 8.22565 5.02632 6.49575 5.02632C4.76584 5.02632 3.10678 5.70005 1.88349 6.89932C0.676223 8.10692 0 9.7305 0 11.4215C0 13.1125 0.676223 14.736 1.88349 15.9436L10.8049 24.7166C10.9902 24.8981 11.2414 25 11.5033 25C11.7652 25 12.0164 24.8981 12.2018 24.7166L21.1232 15.9436C22.3309 14.7321 23.0049 13.1038 23 11.4097C22.995 9.71561 22.3116 8.09119 21.0968 6.8864Z" fill="#956BAC"/>
<path d="M45.98 7C45.94 7.12 45.86 7.22 45.74 7.3C45.62 7.36667 45.4467 7.39333 45.22 7.38C44.9133 7.75333 44.54 8.16667 44.1 8.62C43.6733 9.07333 43.2133 9.52667 42.72 9.98C42.2267 10.42 41.7333 10.8267 41.24 11.2H40.98C41.1933 10.72 41.4067 10.1733 41.62 9.56C41.8467 8.94667 42.0533 8.33333 42.24 7.72C42.4267 7.09333 42.58 6.52667 42.7 6.02L45.98 7ZM40.84 15.92C41.32 17.04 41.9867 18.0267 42.84 18.88C43.7067 19.7333 44.7067 20.44 45.84 21C46.9733 21.5467 48.1733 21.94 49.44 22.18L49.42 22.42C48.94 22.54 48.5267 22.8 48.18 23.2C47.8333 23.6 47.5867 24.1067 47.44 24.72C46.2 24.2133 45.1333 23.5733 44.24 22.8C43.36 22.0267 42.62 21.08 42.02 19.96C41.4333 18.84 40.96 17.5267 40.6 16.02L40.84 15.92ZM40.92 14.36C40.92 15.1067 40.8533 15.8733 40.72 16.66C40.5867 17.4333 40.3267 18.2067 39.94 18.98C39.5533 19.7533 38.98 20.5 38.22 21.22C37.4733 21.9267 36.48 22.58 35.24 23.18C34 23.7933 32.4533 24.3133 30.6 24.74L30.52 24.52C32.1867 23.8 33.5333 23.04 34.56 22.24C35.6 21.4267 36.3933 20.5933 36.94 19.74C37.4867 18.8867 37.8533 18.0133 38.04 17.12C38.24 16.2133 38.34 15.3067 38.34 14.4V10.98H40.92V14.36ZM45.64 9.2C45.64 9.2 45.72 9.26667 45.88 9.4C46.0533 9.52 46.2667 9.67333 46.52 9.86C46.7733 10.0467 47.04 10.2533 47.32 10.48C47.6133 10.7067 47.8733 10.92 48.1 11.12C48.0467 11.3333 47.8533 11.44 47.52 11.44H32.2L32.04 10.88H44.28L45.64 9.2ZM46.72 14.12C46.72 14.12 46.8 14.1867 46.96 14.32C47.1333 14.44 47.3533 14.6067 47.62 14.82C47.8867 15.02 48.1667 15.2333 48.46 15.46C48.7533 15.6867 49.0267 15.9067 49.28 16.12C49.2267 16.3333 49.0333 16.44 48.7 16.44H30.92L30.76 15.86H45.32L46.72 14.12ZM34.58 6.14C35.5933 6.34 36.3933 6.61333 36.98 6.96C37.58 7.30667 38.0067 7.68 38.26 8.08C38.5133 8.48 38.6333 8.86667 38.62 9.24C38.6067 9.6 38.4933 9.9 38.28 10.14C38.0667 10.3667 37.7933 10.5 37.46 10.54C37.1267 10.5667 36.7733 10.44 36.4 10.16C36.3333 9.69333 36.1933 9.22667 35.98 8.76C35.7667 8.29333 35.52 7.84667 35.24 7.42C34.9733 6.98 34.6933 6.59333 34.4 6.26L34.58 6.14ZM62.62 8.06H65.1V21.7C65.1 22.2467 65.02 22.7333 64.86 23.16C64.7 23.6 64.3733 23.9533 63.88 24.22C63.4 24.5 62.6667 24.68 61.68 24.76C61.6667 24.3467 61.6133 23.9933 61.52 23.7C61.44 23.4067 61.3 23.1667 61.1 22.98C60.9 22.7933 60.64 22.6333 60.32 22.5C60 22.3533 59.52 22.2333 58.88 22.14V21.88C58.88 21.88 59.02 21.8867 59.3 21.9C59.58 21.9133 59.9133 21.9333 60.3 21.96C60.7 21.9867 61.0733 22.0067 61.42 22.02C61.7667 22.0333 62.0067 22.04 62.14 22.04C62.3267 22.04 62.4533 22.0067 62.52 21.94C62.5867 21.86 62.62 21.7533 62.62 21.62V8.06ZM54.44 13.98H69.16L70.58 12.2C70.58 12.2 70.6667 12.2667 70.84 12.4C71.0133 12.5333 71.2333 12.7067 71.5 12.92C71.78 13.12 72.0667 13.34 72.36 13.58C72.6533 13.8067 72.9267 14.0267 73.18 14.24C73.1667 14.3467 73.1 14.4267 72.98 14.48C72.8733 14.5333 72.7467 14.56 72.6 14.56H54.6L54.44 13.98ZM56.04 8.06H67.84L69.24 6.3C69.24 6.3 69.32 6.36667 69.48 6.5C69.6533 6.63333 69.8733 6.80667 70.14 7.02C70.4067 7.22 70.6867 7.43333 70.98 7.66C71.2733 7.88667 71.54 8.1 71.78 8.3C71.7267 8.51333 71.5333 8.62 71.2 8.62H56.2L56.04 8.06ZM90.58 5.98H97.02V6.76H91.4V18.78H90.58V5.98ZM104.68 22.9C104.68 22.98 104.6 23.08 104.44 23.2C104.293 23.32 104.093 23.42 103.84 23.5C103.587 23.5933 103.307 23.64 103 23.64H102.66V7.86V6.92L104.76 7.86H107.52V8.42H104.68V22.9ZM107.68 20.54V21.12H103.7V20.54H107.68ZM107.66 11.96V12.52H103.7V11.96H107.66ZM107.64 16.2V16.78H103.68V16.2H107.64ZM106.26 7.86L107.26 6.74L109.26 8.36C109.207 8.42667 109.113 8.5 108.98 8.58C108.847 8.64667 108.687 8.7 108.5 8.74V22.1C108.5 22.1533 108.4 22.2333 108.2 22.34C108.013 22.4333 107.787 22.52 107.52 22.6C107.267 22.68 107.02 22.72 106.78 22.72H106.46V7.86H106.26ZM113.16 16.38C113.933 16.4333 114.533 16.56 114.96 16.76C115.387 16.9467 115.673 17.1667 115.82 17.42C115.967 17.6733 116.013 17.92 115.96 18.16C115.907 18.4 115.773 18.6 115.56 18.76C115.347 18.92 115.093 19.0067 114.8 19.02C114.52 19.02 114.227 18.9 113.92 18.66C113.907 18.2733 113.807 17.88 113.62 17.48C113.433 17.08 113.22 16.7533 112.98 16.5L113.16 16.38ZM112.52 16.62C112.52 16.6867 112.427 16.78 112.24 16.9C112.067 17.0067 111.833 17.1067 111.54 17.2C111.26 17.28 110.967 17.32 110.66 17.32H110.34V10.16V9.24L112.62 10.16H117.96V10.72H112.52V16.62ZM115.56 20.02C116.747 20.3 117.693 20.62 118.4 20.98C119.12 21.3267 119.647 21.6867 119.98 22.06C120.327 22.42 120.527 22.7667 120.58 23.1C120.633 23.4467 120.587 23.7467 120.44 24C120.307 24.2533 120.107 24.44 119.84 24.56C119.587 24.68 119.32 24.7 119.04 24.62C118.76 24.5533 118.513 24.3733 118.3 24.08C118.113 23.5467 117.78 22.9333 117.3 22.24C116.82 21.5467 116.187 20.8933 115.4 20.28L115.56 20.02ZM115 20.68C114.96 20.8 114.867 20.9 114.72 20.98C114.573 21.06 114.34 21.1067 114.02 21.12C113.62 21.5733 113.113 22.0267 112.5 22.48C111.9 22.9333 111.22 23.3533 110.46 23.74C109.713 24.1267 108.913 24.4533 108.06 24.72L107.92 24.52C108.533 24.1067 109.093 23.6267 109.6 23.08C110.12 22.5333 110.573 21.9667 110.96 21.38C111.36 20.7933 111.667 20.2467 111.88 19.74L115 20.68ZM116.58 10.16L117.62 9.06L119.74 10.68C119.687 10.7467 119.593 10.82 119.46 10.9C119.327 10.9667 119.167 11.02 118.98 11.06V16.26C118.98 16.3133 118.88 16.3933 118.68 16.5C118.48 16.6067 118.24 16.7067 117.96 16.8C117.68 16.88 117.413 16.92 117.16 16.92H116.78V10.16H116.58ZM117.98 15.6V16.18H111.74V15.6H117.98ZM117.96 12.86V13.44H111.74V12.86H117.96ZM110.68 6.36C110.987 7.2 111.153 7.9 111.18 8.46C111.207 9.02 111.147 9.46667 111 9.8C110.853 10.1333 110.653 10.3667 110.4 10.5C110.16 10.62 109.913 10.6667 109.66 10.64C109.42 10.6 109.22 10.4933 109.06 10.32C108.9 10.1467 108.82 9.92667 108.82 9.66C108.82 9.39333 108.96 9.09333 109.24 8.76C109.573 8.6 109.847 8.32667 110.06 7.94C110.273 7.55333 110.387 7.02667 110.4 6.36H110.68ZM119.12 7.52V8.08H110.6V7.52H119.12ZM118.62 17.36C118.62 17.36 118.693 17.42 118.84 17.54C118.987 17.66 119.173 17.82 119.4 18.02C119.627 18.2067 119.86 18.4067 120.1 18.62C120.353 18.8333 120.573 19.0333 120.76 19.22C120.72 19.4333 120.54 19.54 120.22 19.54H108.92L108.76 18.96H117.44L118.62 17.36ZM118 7.52L119.16 6.36L121.16 8.3C121.08 8.36667 120.987 8.42 120.88 8.46C120.773 8.48667 120.613 8.50667 120.4 8.52C120.133 8.74667 119.793 9.02 119.38 9.34C118.98 9.64667 118.627 9.9 118.32 10.1L118.12 9.98C118.133 9.76667 118.147 9.50667 118.16 9.2C118.173 8.89333 118.187 8.59333 118.2 8.3C118.213 7.99333 118.22 7.73333 118.22 7.52H118ZM134.12 20.56C136.12 20.6667 137.78 20.84 139.1 21.08C140.42 21.32 141.46 21.5933 142.22 21.9C142.993 22.1933 143.533 22.5 143.84 22.82C144.147 23.1267 144.287 23.4133 144.26 23.68C144.233 23.96 144.093 24.1867 143.84 24.36C143.587 24.5467 143.28 24.6533 142.92 24.68C142.56 24.72 142.2 24.6533 141.84 24.48C141.32 24.08 140.647 23.66 139.82 23.22C139.007 22.7933 138.073 22.38 137.02 21.98C135.967 21.5667 134.82 21.2 133.58 20.88L134.12 20.56ZM133.6 20.88C133.84 20.5733 134.12 20.18 134.44 19.7C134.76 19.22 135.073 18.72 135.38 18.2C135.687 17.6667 135.967 17.1667 136.22 16.7C136.487 16.2333 136.687 15.8533 136.82 15.56L139.74 16.2C139.7 16.3333 139.6 16.4467 139.44 16.54C139.293 16.6333 138.987 16.6667 138.52 16.64L139.02 16.32C138.807 16.6933 138.52 17.1733 138.16 17.76C137.8 18.3333 137.42 18.92 137.02 19.52C136.62 20.12 136.247 20.6467 135.9 21.1L133.6 20.88ZM140.34 6.38C140.327 6.51333 140.267 6.63333 140.16 6.74C140.053 6.83333 139.867 6.9 139.6 6.94V14.98C139.6 15.0333 139.507 15.1067 139.32 15.2C139.133 15.2933 138.9 15.38 138.62 15.46C138.34 15.5267 138.053 15.56 137.76 15.56H137.36V6.12L140.34 6.38ZM133.76 6.88C134.533 7.09333 135.133 7.36 135.56 7.68C135.987 7.98667 136.28 8.3 136.44 8.62C136.6 8.94 136.653 9.23333 136.6 9.5C136.56 9.76667 136.447 9.98667 136.26 10.16C136.073 10.32 135.847 10.4 135.58 10.4C135.327 10.4 135.053 10.28 134.76 10.04C134.747 9.69333 134.68 9.34 134.56 8.98C134.44 8.60667 134.293 8.25333 134.12 7.92C133.947 7.57333 133.76 7.26667 133.56 7L133.76 6.88ZM143.94 7.84C143.913 7.93333 143.84 8.02 143.72 8.1C143.6 8.18 143.427 8.20667 143.2 8.18C142.907 8.47333 142.487 8.83333 141.94 9.26C141.393 9.67333 140.853 10.0533 140.32 10.4L140.14 10.3C140.287 9.95333 140.433 9.56667 140.58 9.14C140.74 8.7 140.873 8.28 140.98 7.88C141.1 7.46667 141.193 7.12667 141.26 6.86L143.94 7.84ZM139.6 10.76C139.96 11.2 140.42 11.6 140.98 11.96C141.54 12.32 142.153 12.6267 142.82 12.88C143.5 13.12 144.16 13.3067 144.8 13.44L144.76 13.66C144 13.86 143.493 14.4933 143.24 15.56C142.653 15.24 142.113 14.8533 141.62 14.4C141.14 13.9467 140.707 13.4267 140.32 12.84C139.947 12.2533 139.627 11.6067 139.36 10.9L139.6 10.76ZM142.72 17.88C142.427 18.9467 142.027 19.88 141.52 20.68C141.013 21.4667 140.34 22.1333 139.5 22.68C138.673 23.2267 137.633 23.6667 136.38 24C135.127 24.3467 133.593 24.62 131.78 24.82L131.7 24.5C133.487 24.1 134.973 23.6067 136.16 23.02C137.347 22.4333 138.28 21.7 138.96 20.82C139.64 19.94 140.113 18.8533 140.38 17.56H142.72V17.88ZM139 11.08C138.44 12.0533 137.66 12.9067 136.66 13.64C135.66 14.3733 134.547 14.9867 133.32 15.48L133.14 15.2C133.9 14.6267 134.56 13.9467 135.12 13.16C135.693 12.3733 136.147 11.5733 136.48 10.76H139V11.08ZM142.88 16.08C142.88 16.08 142.993 16.1733 143.22 16.36C143.447 16.5467 143.713 16.7733 144.02 17.04C144.327 17.3067 144.607 17.56 144.86 17.8C144.807 18.0133 144.627 18.12 144.32 18.12H132.38L132.22 17.56H141.78L142.88 16.08ZM142.68 9.34C142.68 9.34 142.793 9.43333 143.02 9.62C143.26 9.79333 143.54 10.0067 143.86 10.26C144.18 10.5133 144.467 10.76 144.72 11C144.667 11.2133 144.487 11.32 144.18 11.32H133.54L133.38 10.76H141.58L142.68 9.34ZM130.42 12.92C131.22 13.2133 131.847 13.5467 132.3 13.92C132.753 14.28 133.067 14.64 133.24 15C133.427 15.36 133.507 15.6933 133.48 16C133.453 16.2933 133.347 16.5333 133.16 16.72C132.987 16.9067 132.767 17.0067 132.5 17.02C132.233 17.02 131.953 16.9 131.66 16.66C131.62 16.26 131.52 15.84 131.36 15.4C131.2 14.96 131.02 14.54 130.82 14.14C130.62 13.7267 130.413 13.36 130.2 13.04L130.42 12.92ZM131.38 6.24C131.367 6.38667 131.307 6.51333 131.2 6.62C131.093 6.71333 130.913 6.78 130.66 6.82V24.08C130.66 24.1467 130.567 24.2333 130.38 24.34C130.207 24.46 129.993 24.5667 129.74 24.66C129.487 24.7533 129.22 24.8 128.94 24.8H128.52V5.96L131.38 6.24ZM130.5 11.24C130.167 13 129.613 14.6333 128.84 16.14C128.08 17.6333 127.1 18.9667 125.9 20.14L125.64 19.92C126.133 19.0933 126.553 18.1867 126.9 17.2C127.247 16.2133 127.533 15.1867 127.76 14.12C128 13.0533 128.187 11.9867 128.32 10.92H130.5V11.24ZM131.74 9.44C131.74 9.44 131.84 9.54 132.04 9.74C132.253 9.92667 132.5 10.1533 132.78 10.42C133.06 10.6867 133.307 10.94 133.52 11.18C133.48 11.3933 133.307 11.5 133 11.5H126.02L125.86 10.92H130.74L131.74 9.44ZM156.02 24.82H149.58V24.04H155.2V12.02H156.02V24.82Z" fill="#956BAC"/>
<path d="M35.3008 38.0293C35.3008 37.4115 35.2331 36.8867 35.0977 36.4551C34.9707 36.0234 34.8014 35.8076 34.5898 35.8076C34.3867 35.8076 34.2174 36.015 34.082 36.4297C33.9551 36.8359 33.8916 37.3691 33.8916 38.0293C33.8916 39.5527 34.1243 40.3145 34.5898 40.3145C35.0638 40.3145 35.3008 39.5527 35.3008 38.0293ZM33.5742 35.7949C33.9466 35.7357 34.1878 35.7061 34.2979 35.7061H34.374C35.0003 35.7061 35.4574 35.8288 35.7451 36.0742C36.236 36.4889 36.4814 37.1576 36.4814 38.0801C36.4814 39.0026 36.2275 39.667 35.7197 40.0732C35.4658 40.2764 35.0342 40.3906 34.4248 40.416C34.1878 40.4245 34.0482 40.4583 34.0059 40.5176L33.8916 40.6953V42.333C33.5023 42.4176 33.2061 42.5488 33.0029 42.7266C32.9691 42.7604 32.8633 42.862 32.6855 43.0312V36.5439C32.6855 36.2985 32.6051 36.1673 32.4443 36.1504L31.7842 36.0742C32.1227 35.9811 32.3936 35.8796 32.5967 35.7695L33.2441 35.4141C33.4303 35.6257 33.5404 35.7526 33.5742 35.7949ZM40.5516 36.2646C40.7885 36.1969 41.0298 36.1081 41.2752 35.998C41.5206 35.8796 41.7026 35.778 41.8211 35.6934L41.9988 35.5918L42.6844 36.3027L42.9129 36.9629C42.7013 37.0052 42.5363 37.0771 42.4178 37.1787C42.2739 37.2887 42.1596 37.4411 42.075 37.6357L41.9607 38.1816L41.8973 37.8262C41.7365 37.1576 41.5418 36.7386 41.3133 36.5693C41.0594 36.3662 40.8055 36.2646 40.5516 36.2646ZM40.5516 36.2646V40.543C40.2807 40.6022 40.0734 40.6742 39.9295 40.7588C39.8449 40.8011 39.756 40.8604 39.6629 40.9365L39.4471 41.1523L39.3582 41.2412V36.709C39.3582 36.4635 39.2736 36.3281 39.1043 36.3027L38.4568 36.2266C38.7954 36.1335 39.062 36.0319 39.2566 35.9219L39.9168 35.5791C40.1199 35.8245 40.2299 35.9557 40.2469 35.9727L40.5516 36.2646ZM48.1891 38.2832C48.1891 37.5977 48.0875 37.056 47.8844 36.6582C47.6897 36.252 47.4654 36.0531 47.2115 36.0615C46.9576 36.07 46.7291 36.2731 46.526 36.6709C46.3313 37.0602 46.234 37.5934 46.234 38.2705C46.234 39.7855 46.5598 40.5472 47.2115 40.5557C47.8632 40.5557 48.1891 39.7982 48.1891 38.2832ZM45.5865 36.6582C45.9928 36.1165 46.5302 35.8457 47.1988 35.8457C47.8674 35.8457 48.4007 36.1123 48.7984 36.6455C49.1454 37.1025 49.3189 37.6611 49.3189 38.3213C49.3189 38.8714 49.1835 39.3665 48.9127 39.8066C48.5234 40.4668 47.9563 40.7884 47.2115 40.7715C46.5598 40.7715 46.0436 40.5345 45.6627 40.0605C45.2988 39.612 45.1126 39.0322 45.1041 38.3213C45.1041 37.6696 45.2649 37.1152 45.5865 36.6582ZM52.1957 33.2432L53.8969 32.6084C54.0069 32.5661 54.1889 32.4688 54.4428 32.3164L54.6332 32.2148L55.3188 32.9258L55.5473 33.5859C55.3357 33.6283 55.1664 33.696 55.0395 33.7891C54.8533 33.9414 54.7432 34.0938 54.7094 34.2461L54.5824 34.8047L54.5189 34.4492C54.3581 33.7806 54.1677 33.3574 53.9477 33.1797C53.7615 33.0358 53.5795 32.9427 53.4018 32.9004V36.4297H54.9252V36.709H53.4018V42.2314C53.1309 42.2907 52.9193 42.3626 52.767 42.4473C52.6824 42.4896 52.5935 42.5488 52.5004 42.625L52.2846 42.8408L52.1957 42.9297V36.709H51.7641V36.4297H52.1957V33.2432ZM56.507 33.4209C56.744 33.3532 56.981 33.2643 57.218 33.1543C57.4634 33.0443 57.6454 32.9469 57.7639 32.8623L57.9543 32.7607L58.6398 33.4717L58.8684 34.1318C58.6568 34.1742 58.4875 34.2419 58.3605 34.335C58.2167 34.445 58.1066 34.5973 58.0305 34.792L57.9035 35.3506L57.84 34.9951C57.6792 34.3265 57.4888 33.9033 57.2687 33.7256C57.0148 33.5225 56.7609 33.4209 56.507 33.4209ZM58.551 36.5186V40.7969C58.2801 40.8561 58.0686 40.9281 57.9162 41.0127C57.8316 41.055 57.7469 41.1143 57.6623 41.1904C57.6284 41.2243 57.5523 41.2962 57.4338 41.4062L57.3449 41.4951V36.9629C57.3449 36.7174 57.2645 36.5863 57.1037 36.5693L56.4436 36.4932C56.7821 36.4001 57.0529 36.2985 57.2561 36.1885L57.9035 35.833C58.1066 36.0785 58.2209 36.2096 58.2463 36.2266L58.551 36.5186ZM63.0781 32.9766V40.8477C62.8073 40.9069 62.5999 40.9746 62.4561 41.0508C62.3714 41.0931 62.2826 41.1566 62.1895 41.2412C62.1556 41.2835 62.0794 41.3555 61.9609 41.457L61.8721 41.5459V33.4209C61.8721 33.1755 61.7917 33.0443 61.6309 33.0273L60.9707 32.9512C61.2923 32.8665 61.5632 32.765 61.7832 32.6465L62.4307 32.291C62.6338 32.5449 62.748 32.6803 62.7734 32.6973L63.0781 32.9766ZM67.7322 38.5879C68.0454 38.1647 68.2739 37.7288 68.4178 37.2803C68.5701 36.8317 68.604 36.5059 68.5193 36.3027C68.4347 36.0996 68.3501 35.9727 68.2654 35.9219L68.0369 35.7822H67.8338C67.3683 35.7822 67.1355 36.6074 67.1355 38.2578C67.1355 39.2988 67.199 39.9167 67.326 40.1113C67.5291 40.4245 67.783 40.5853 68.0877 40.5938C68.3924 40.5938 68.6548 40.4922 68.8748 40.2891C69.0864 40.0944 69.2049 39.9505 69.2303 39.8574L69.408 39.2734V40.7969H68.0623C67.5206 40.7969 67.0424 40.6445 66.6277 40.3398C66.1707 40.0013 65.9464 39.2523 65.9549 38.0928C65.9633 37.1025 66.2173 36.3958 66.7166 35.9727C67.0298 35.7103 67.4699 35.5791 68.0369 35.5791H69.5604C69.3657 36.3324 69.1795 36.8486 69.0018 37.1279C68.6971 37.5934 68.3416 38.0166 67.9354 38.3975L67.7322 38.5879Z" fill="#956BAC"/>
</svg>
