<svg width="297" height="135" viewBox="0 0 297 135" fill="none" xmlns="http://www.w3.org/2000/svg">
<path d="M10.9888 2C10.9888 0.895428 11.8842 0 12.9888 0H285.268C286.372 0 287.268 0.895431 287.268 2V133C287.268 134.105 286.372 135 285.268 135H12.9888C11.8842 135 10.9888 134.105 10.9888 133V2Z" fill="#F1E5D2"/>
<path d="M11.0255 0H286.997L296.686 50.2326H0L11.0255 0Z" fill="#E8DFD1"/>
<g filter="url(#filter0_d_139_28)">
<path d="M10.9888 0H287.268V50.2326H10.9888V0Z" fill="#F8EDDD"/>
</g>
<path d="M100.465 72.21H197.791V98.896H100.465V72.21Z" fill="#FDFDFD"/>
<path d="M157.306 79.999V80.8277L157.333 81.6297L157.894 81.6564H158.455L158.429 81.897V82.1644H157.867H157.306V83.5545V84.9446H157.814C158.135 84.9267 158.393 84.8911 158.589 84.8376C158.785 84.7663 158.981 84.6772 159.177 84.5703C159.355 84.499 159.534 84.401 159.712 84.2763C159.872 84.1693 160.05 84.0089 160.246 83.7951C160.46 83.599 160.621 83.4208 160.728 83.2604L160.888 83.0465L159.792 83.0198H158.723V82.7792V82.5119H160.033L161.316 82.4852L161.342 81.2555V79.999H161.904H162.492V81.0951C162.492 81.8258 162.496 82.1911 162.505 82.1911C162.514 82.1911 162.572 82.1644 162.679 82.1109C162.768 82.0574 162.911 81.9238 163.107 81.7099C163.303 81.5139 163.454 81.3357 163.561 81.1753C163.686 81.0327 163.802 80.8723 163.909 80.6941L164.069 80.4267L164.39 80.5871C164.586 80.7119 164.684 80.7832 164.684 80.801C164.684 80.8188 164.657 80.8723 164.604 80.9614C164.533 81.0683 164.345 81.2733 164.042 81.5763C163.739 81.8792 163.499 82.0886 163.321 82.2045C163.142 82.3203 163.018 82.3961 162.946 82.4317C162.893 82.4495 162.866 82.4673 162.866 82.4852C162.866 82.503 163.24 82.5119 163.989 82.5119H165.112V82.7792V83.0198H163.909C163.125 83.0198 162.733 83.0287 162.733 83.0465C162.733 83.0644 162.804 83.1357 162.946 83.2604C163.089 83.3852 163.24 83.5099 163.401 83.6347C163.579 83.7594 163.771 83.8753 163.976 83.9822C164.181 84.0891 164.381 84.1604 164.577 84.1961C164.791 84.2495 164.898 84.2763 164.898 84.2763C164.898 84.2763 164.898 84.4277 164.898 84.7307L164.925 85.1317H164.791C164.702 85.1317 164.577 85.105 164.417 85.0515C164.274 84.998 164.105 84.9267 163.909 84.8376C163.731 84.7485 163.57 84.6594 163.428 84.5703C163.303 84.4812 163.116 84.303 162.866 84.0357L162.492 83.6614V84.0357C162.492 84.2673 162.479 84.4456 162.452 84.5703C162.425 84.6951 162.385 84.8109 162.332 84.9178C162.278 85.0069 162.216 85.0961 162.144 85.1852C162.073 85.2743 161.984 85.3456 161.877 85.399C161.77 85.4347 161.654 85.4525 161.53 85.4525H161.342V84.5436C161.342 83.9198 161.338 83.6035 161.329 83.5946C161.32 83.5857 161.187 83.7104 160.928 83.9688C160.67 84.2272 160.478 84.4099 160.353 84.5168C160.211 84.606 160.095 84.6772 160.006 84.7307C159.881 84.7842 159.747 84.8287 159.605 84.8644C159.462 84.9178 159.311 84.9624 159.15 84.998C159.008 85.0159 158.847 85.0337 158.669 85.0515L158.455 85.0782L158.429 85.2654V85.4525H157.867H157.306V88.1258C157.306 89.8901 157.297 90.8436 157.279 90.9862C157.243 91.1109 157.199 91.2267 157.145 91.3337C157.092 91.4228 157.021 91.5119 156.932 91.601C156.842 91.6723 156.736 91.7347 156.611 91.7881C156.504 91.8238 156.415 91.8416 156.343 91.8416C156.272 91.8416 156.219 91.8327 156.183 91.8149C156.147 91.797 156.13 90.1842 156.13 86.9763V82.1644H155.14H154.151V81.897V81.6564H155.14H156.13V80.8277V79.999H156.718H157.306ZM159.043 80.6941C159.043 80.6584 159.11 80.6495 159.244 80.6673C159.378 80.6852 159.498 80.703 159.605 80.7208C159.73 80.7564 159.863 80.8099 160.006 80.8812C160.148 80.9525 160.282 81.0327 160.407 81.1218C160.514 81.2109 160.616 81.3178 160.714 81.4426C160.812 81.5673 160.897 81.6832 160.968 81.7901C161.022 81.9149 161.048 81.9817 161.048 81.9906C161.048 81.9995 160.924 82.053 160.674 82.151C160.425 82.249 160.295 82.298 160.287 82.298C160.278 82.298 160.238 82.2223 160.166 82.0708C160.095 81.9193 160.006 81.7723 159.899 81.6297C159.792 81.4871 159.676 81.3535 159.551 81.2287C159.409 81.0862 159.284 80.9881 159.177 80.9347C159.07 80.8634 159.017 80.8144 159.017 80.7876C159.017 80.7609 159.026 80.7297 159.043 80.6941ZM155.328 84.4901V86.1208C155.328 87.1901 155.319 87.7871 155.301 87.9119C155.265 88.0188 155.23 88.1258 155.194 88.2327C155.14 88.3396 155.069 88.4376 154.98 88.5267C154.891 88.6159 154.802 88.6871 154.713 88.7406C154.624 88.7941 154.508 88.8208 154.365 88.8208H154.178V86.6555V84.4901H154.739H155.328ZM161.048 85.5862C161.066 85.5862 161.138 85.604 161.262 85.6396C161.369 85.6931 161.512 85.7555 161.69 85.8267L161.957 85.9604L161.743 86.2545C161.654 86.397 161.547 86.5485 161.423 86.7089C161.351 86.8159 161.316 86.8738 161.316 86.8827C161.316 86.8916 162.046 86.8961 163.508 86.8961H165.727V87.1634V87.404H165.032H164.363L164.31 87.5109C164.292 87.5822 164.221 87.7337 164.096 87.9654C163.971 88.2149 163.855 88.4198 163.748 88.5802C163.641 88.7406 163.512 88.9144 163.361 89.1015C163.209 89.2886 163.062 89.4535 162.92 89.5961C162.777 89.7386 162.706 89.8144 162.706 89.8233C162.706 89.8322 162.813 89.8723 163.027 89.9436C163.187 89.9792 163.49 90.0594 163.936 90.1842C164.381 90.2911 164.853 90.398 165.352 90.505C165.887 90.6119 166.159 90.6698 166.168 90.6787C166.177 90.6876 166.101 90.8258 165.94 91.0931C165.762 91.3604 165.673 91.503 165.673 91.5208C165.655 91.5208 165.335 91.4406 164.711 91.2802C164.051 91.0842 163.543 90.9327 163.187 90.8258C162.795 90.701 162.51 90.5941 162.332 90.505C162.136 90.4159 162.029 90.3713 162.011 90.3713C161.993 90.3713 161.895 90.4248 161.717 90.5317C161.556 90.6386 161.387 90.7277 161.209 90.799C161.031 90.8881 160.835 90.9772 160.621 91.0663C160.407 91.1376 160.202 91.2 160.006 91.2535C159.774 91.3248 159.462 91.3961 159.07 91.4673C158.66 91.5386 158.384 91.5743 158.241 91.5743C158.081 91.5921 157.947 91.5921 157.84 91.5743C157.716 91.5564 157.653 91.5253 157.653 91.4807C157.653 91.4362 157.671 91.405 157.707 91.3871C157.725 91.3871 157.756 91.3827 157.8 91.3738C157.845 91.3649 157.903 91.356 157.974 91.347C158.045 91.3381 158.108 91.3248 158.161 91.3069C158.393 91.2535 158.642 91.1822 158.91 91.0931C159.177 91.004 159.418 90.9238 159.632 90.8525C159.863 90.7456 160.104 90.6297 160.353 90.505C160.585 90.398 160.79 90.2822 160.968 90.1574C161.146 90.0505 161.236 89.9926 161.236 89.9837C161.236 89.9748 161.164 89.9258 161.022 89.8366C161.004 89.8188 160.928 89.7743 160.794 89.703C160.661 89.6317 160.558 89.5782 160.487 89.5426C160.255 89.4 159.988 89.2307 159.685 89.0347C159.364 88.8208 159.213 88.705 159.231 88.6871C159.248 88.6515 159.302 88.5713 159.391 88.4465C159.516 88.3218 159.663 88.1258 159.832 87.8584C160.001 87.5911 160.086 87.4485 160.086 87.4307C160.086 87.4129 159.819 87.404 159.284 87.404H158.509V87.1634V86.9228L159.471 86.8961H160.407L160.647 86.4416C160.808 86.103 160.906 85.8802 160.941 85.7733C160.995 85.6485 161.031 85.5862 161.048 85.5862ZM160.888 87.4307L160.674 87.7248C160.532 87.903 160.371 88.0901 160.193 88.2862L159.952 88.5535L160.033 88.6069C160.086 88.6426 160.398 88.803 160.968 89.0881L161.824 89.5426L162.118 89.2485C162.296 89.0525 162.447 88.8743 162.572 88.7139C162.697 88.5357 162.804 88.3574 162.893 88.1792C163 87.9832 163.076 87.8183 163.12 87.6847C163.165 87.551 163.187 87.4708 163.187 87.4441C163.187 87.4173 162.804 87.404 162.038 87.404L160.888 87.4307Z" fill="#353535"/>
<path d="M142.491 80.2406C142.794 80.2584 142.977 80.2718 143.039 80.2807C143.101 80.2896 143.137 80.2985 143.146 80.3074C143.155 80.3163 143.159 80.3386 143.159 80.3743C143.142 80.4456 143.124 80.5168 143.106 80.5881V80.6683H145.325H147.57V80.5614L147.544 80.4545L147.998 80.4277C148.319 80.4099 148.497 80.401 148.533 80.401H148.64L148.693 80.6951C148.729 80.9089 148.773 81.096 148.827 81.2564C148.862 81.4525 148.916 81.6218 148.987 81.7644L149.094 82.005L149.014 81.9782C148.943 81.9782 148.818 81.9337 148.64 81.8446C148.461 81.7733 148.31 81.6842 148.185 81.5772C148.06 81.5059 147.962 81.4168 147.891 81.3099L147.784 81.203H145.298H142.785L142.625 81.3366C142.518 81.4257 142.393 81.5149 142.25 81.604C142.09 81.6753 141.948 81.7287 141.823 81.7644C141.698 81.8178 141.631 81.8401 141.622 81.8312C141.613 81.8223 141.645 81.7376 141.716 81.5772C141.769 81.4525 141.832 81.2921 141.903 81.096C141.956 80.9178 142.001 80.7307 142.037 80.5347L142.09 80.2139L142.491 80.2406ZM138.855 80.5614V80.6416V80.7218L139.684 80.6951H140.513L140.54 80.6149C140.54 80.5792 140.673 80.5614 140.941 80.5614H141.368V85.2931C141.368 88.4654 141.35 90.1139 141.315 90.2386C141.297 90.3277 141.261 90.4257 141.208 90.5327C141.172 90.604 141.11 90.6931 141.021 90.8C140.932 90.8891 140.851 90.9515 140.78 90.9871C140.709 91.0228 140.655 91.0495 140.62 91.0673C140.584 91.0673 140.562 91.0629 140.553 91.054C140.544 91.0451 140.54 91.0228 140.54 90.9871L140.513 90.8802H139.497L138.481 90.8535L138.267 90.9604C138.143 91.0317 138.067 91.0673 138.04 91.0673C138.013 91.0673 138 89.3208 138 85.8277V80.5614H138.428H138.855ZM139.711 81.203C139.176 81.203 138.9 81.2074 138.882 81.2163C138.864 81.2253 138.855 81.6753 138.855 82.5663V83.903H139.711H140.54V82.5663L140.513 81.203H139.711ZM138.855 87.6723V88.7683C138.855 89.5168 138.847 89.9446 138.829 90.0515C138.811 90.1762 138.793 90.2564 138.775 90.2921L138.936 90.3456C139.025 90.3456 139.265 90.3456 139.657 90.3456H140.54V89.0089V87.6723H139.711H138.855ZM144.255 81.6842V81.8178V81.9515H145.378H146.501L146.528 81.8178V81.7109H147.089H147.65V83.6624C147.65 84.9634 147.633 85.6673 147.597 85.7743C147.561 85.8812 147.526 85.9792 147.49 86.0683C147.454 86.1396 147.392 86.2198 147.303 86.3089C147.232 86.398 147.151 86.4693 147.062 86.5228C146.955 86.5941 146.84 86.6297 146.715 86.6297H146.501V86.2822V85.9614H145.325H144.122L144.042 86.0951C144.006 86.1842 143.957 86.2644 143.895 86.3356C143.832 86.4069 143.748 86.4738 143.641 86.5361C143.534 86.5985 143.418 86.6297 143.293 86.6297H143.106V84.1436V81.6842H143.667H144.255ZM145.886 86.1753L145.859 86.496C145.859 86.7277 145.833 86.9059 145.779 87.0307C145.744 87.1555 145.708 87.2446 145.672 87.298C145.619 87.3515 145.592 87.3827 145.592 87.3916C145.592 87.4005 146.18 87.4139 147.356 87.4317H149.094V87.6723L149.121 87.9396H145.351H141.609V87.6723V87.4317H143.159L144.71 87.405V86.8168C144.71 86.4069 144.719 86.1931 144.737 86.1753C144.754 86.1753 144.95 86.1753 145.325 86.1753H145.886ZM147.116 88.1802L147.41 88.5545C147.588 88.804 147.784 89.0535 147.998 89.303C148.212 89.5525 148.488 89.8465 148.827 90.1852L149.335 90.7198L149.361 91.0139C149.361 91.2099 149.352 91.3079 149.335 91.3079C149.317 91.3079 149.174 91.2099 148.907 91.0139C148.693 90.8535 148.435 90.6485 148.132 90.399C147.9 90.203 147.65 89.9802 147.383 89.7307C147.116 89.4812 146.902 89.2673 146.742 89.0891C146.581 88.9287 146.403 88.7327 146.207 88.501C146.064 88.3228 145.993 88.2248 145.993 88.2069C145.993 88.1891 146.18 88.1802 146.554 88.1802H147.116ZM144.55 88.4208C144.942 88.4208 145.142 88.4297 145.151 88.4475C145.16 88.4654 145.12 88.5277 145.031 88.6347C144.959 88.7416 144.844 88.8886 144.683 89.0757C144.523 89.2629 144.327 89.4545 144.095 89.6505C143.846 89.8822 143.614 90.0782 143.4 90.2386C143.168 90.4168 142.919 90.604 142.651 90.8C142.313 91.0139 142.037 91.1921 141.823 91.3347C141.555 91.4951 141.413 91.5753 141.395 91.5753C141.377 91.5753 141.368 91.4951 141.368 91.3347V91.1208L141.636 90.8802C141.832 90.7198 142.028 90.5594 142.224 90.399C142.402 90.2208 142.589 90.0337 142.785 89.8376C142.946 89.6594 143.115 89.4634 143.293 89.2495C143.453 89.0713 143.587 88.8931 143.694 88.7149C143.801 88.5545 143.872 88.4654 143.908 88.4475C143.926 88.4297 144.14 88.4208 144.55 88.4208ZM144.255 83.7693L145.378 83.7426H146.501V82.4861H144.255V83.7693ZM144.255 85.4267H146.501V84.2772H144.255V85.4267ZM138.855 85.7743L138.882 87.1376H140.513L140.54 85.7743V84.4376H138.855V85.7743Z" fill="#353535"/>
<path d="M120.067 85.4209C119.276 85.7722 119.004 86.1747 118.882 87.2342L118.854 87.5129L118.822 87.9876L118.813 88.1615C118.798 88.4585 118.694 88.7179 118.469 89.078L118.248 89.4204C117.871 90.0073 117.722 90.4019 117.806 90.9247C117.832 91.1392 117.942 91.435 118.07 91.6635C118.571 92.5697 119.676 92.9529 120.635 92.5267L120.778 92.459C120.848 92.4241 120.913 92.3876 120.98 92.3466L121.116 92.2575L121.187 92.2073L121.339 92.0907L121.423 92.0234L121.714 91.7804L122.099 91.4469L122.331 91.2528C122.604 91.0312 122.828 90.8834 123.033 90.7921C123.239 90.7006 123.506 90.631 123.867 90.57L124.18 90.522L124.71 90.4487L125.101 90.3891L125.313 90.3512C125.378 90.3384 125.439 90.3253 125.495 90.3119L125.656 90.269C125.733 90.2462 125.805 90.2215 125.878 90.1931L126.025 90.1319C126.984 89.7056 127.314 88.6848 126.812 87.7755C126.685 87.5461 126.489 87.2906 126.3 87.1291C125.944 86.803 125.532 86.6523 124.871 86.54L124.661 86.5063L124.232 86.4427C123.708 86.3611 123.386 86.2659 123.102 86.0896L122.797 85.901L122.518 85.736C121.409 85.094 120.926 85.0391 120.067 85.4209ZM123.836 81.7394L123.818 81.7474C123.094 82.0825 122.727 82.9453 122.819 83.8661C122.933 85.0031 123.714 85.9568 124.748 85.9074C124.934 85.8979 125.112 85.8548 125.276 85.7819C126.014 85.4543 126.389 84.583 126.296 83.6538C126.181 82.5184 125.396 81.5653 124.366 81.6133C124.182 81.6228 124.001 81.6659 123.836 81.7394ZM116.208 82.4527C116.141 82.4825 116.098 82.503 116.051 82.5326L116 82.5659C115.144 83.0842 115.155 84.2721 115.881 85.1974C116.556 86.0516 117.681 86.481 118.554 86.0931L118.664 86.0406L118.712 86.0129L118.762 85.9798C119.619 85.4613 119.607 84.2737 118.881 83.3483C118.207 82.4925 117.083 82.0642 116.208 82.4527Z" fill="#F09AC2"/>
<path d="M119.769 80.8712C118.896 81.2594 118.596 82.321 118.947 83.3192C119.327 84.3991 120.373 85.1269 121.396 84.8177C121.461 84.7978 121.522 84.7751 121.579 84.7497C122.411 84.3799 122.727 83.3936 122.447 82.4357L122.403 82.3012C122.023 81.2213 120.976 80.4935 119.954 80.8026C119.891 80.8213 119.829 80.8442 119.769 80.8712ZM114.515 85.8814C114.351 85.9543 114.206 86.0552 114.086 86.18C113.414 86.8897 113.788 88.0262 114.726 88.7952C115.494 89.4248 116.493 89.6852 117.23 89.3576C117.395 89.2847 117.54 89.1839 117.66 89.0591C118.331 88.3493 117.958 87.2128 117.019 86.4438C116.252 85.8143 115.253 85.5539 114.515 85.8814Z" fill="#F09AC2"/>
<defs>
<filter id="filter0_d_139_28" x="6.98877" y="0" width="284.279" height="65.2324" filterUnits="userSpaceOnUse" color-interpolation-filters="sRGB">
<feFlood flood-opacity="0" result="BackgroundImageFix"/>
<feColorMatrix in="SourceAlpha" type="matrix" values="0 0 0 0 0 0 0 0 0 0 0 0 0 0 0 0 0 0 127 0" result="hardAlpha"/>
<feOffset dy="11"/>
<feGaussianBlur stdDeviation="2"/>
<feComposite in2="hardAlpha" operator="out"/>
<feColorMatrix type="matrix" values="0 0 0 0 0.648588 0 0 0 0 0.630161 0 0 0 0 0.600986 0 0 0 0.08 0"/>
<feBlend mode="normal" in2="BackgroundImageFix" result="effect1_dropShadow_139_28"/>
<feBlend mode="normal" in="SourceGraphic" in2="effect1_dropShadow_139_28" result="shape"/>
</filter>
</defs>
</svg>
