<svg width="23" height="45" viewBox="0 0 23 45" fill="none" xmlns="http://www.w3.org/2000/svg">
<path d="M21.0968 6.8864C20.492 6.28689 19.7715 5.81136 18.9774 5.48751C18.1833 5.16365 17.3314 4.99794 16.4714 5.00002C15.6113 4.99794 14.7594 5.16365 13.9653 5.48751C13.1712 5.81136 12.4508 6.28689 11.846 6.8864L11.477 7.2611L11.108 6.89932C9.88471 5.70005 8.22565 5.02632 6.49575 5.02632C4.76584 5.02632 3.10678 5.70005 1.88349 6.89932C0.676223 8.10692 0 9.7305 0 11.4215C0 13.1125 0.676223 14.736 1.88349 15.9436L10.8049 24.7166C10.9902 24.8981 11.2414 25 11.5033 25C11.7652 25 12.0164 24.8981 12.2018 24.7166L21.1232 15.9436C22.3309 14.7321 23.0049 13.1038 23 11.4097C22.995 9.71561 22.3116 8.09119 21.0968 6.8864Z" fill="#956BAC"/>
</svg>
