<svg width="1440" height="4297" viewBox="0 0 1440 4297" fill="none" xmlns="http://www.w3.org/2000/svg">
<mask id="mask0_123_166" style="mask-type:alpha" maskUnits="userSpaceOnUse" x="0" y="0" width="1440" height="4297">
<rect width="1440" height="4297" fill="#D9D9D9"/>
</mask>
<g mask="url(#mask0_123_166)">
<path d="M36.9616 238.692C46.9735 215.597 61.5206 194.632 79.756 177.018C97.9913 159.403 119.55 145.492 143.177 136.093C166.759 126.58 191.96 121.76 217.313 121.913C242.665 122.066 267.664 127.189 290.851 136.985L305.095 143.206L311.246 129.226C331.641 82.8793 369.77 46.1579 417.248 27.1387C464.725 8.11949 517.661 8.36018 564.413 27.8078C610.816 47.6602 647.216 84.7615 665.798 131.146C684.379 177.531 683.661 229.502 663.798 275.901L515.354 614.636C512.262 621.651 506.488 627.209 499.3 630.089C492.111 632.968 484.097 632.934 477.017 629.994L135.766 487.429C89.306 467.473 52.9161 430.22 34.4352 383.694C15.9544 337.169 16.8617 285.096 36.9616 238.692Z" fill="#F09AC2" fill-opacity="0.28"/>
<path d="M1584.05 1545.69C1574.03 1522.6 1559.49 1501.63 1541.25 1484.02C1523.02 1466.4 1501.46 1452.49 1477.83 1443.09C1454.25 1433.58 1429.05 1428.76 1403.7 1428.91C1378.34 1429.07 1353.34 1434.19 1330.16 1443.98L1315.91 1450.21L1309.76 1436.23C1289.37 1389.88 1251.24 1353.16 1203.76 1334.14C1156.28 1315.12 1103.35 1315.36 1056.6 1334.81C1010.19 1354.66 973.792 1391.76 955.211 1438.15C936.629 1484.53 937.347 1536.5 957.21 1582.9L1105.65 1921.64C1108.75 1928.65 1114.52 1934.21 1121.71 1937.09C1128.9 1939.97 1136.91 1939.93 1143.99 1936.99L1485.24 1794.43C1531.7 1774.47 1568.09 1737.22 1586.57 1690.69C1605.05 1644.17 1604.15 1592.1 1584.05 1545.69Z" fill="#F09AC2" fill-opacity="0.28"/>
<path d="M-147.038 3511.69C-137.026 3488.6 -122.479 3467.63 -104.244 3450.02C-86.0085 3432.4 -64.4495 3418.49 -40.8223 3409.09C-17.241 3399.58 7.95993 3394.76 33.3128 3394.91C58.6657 3395.07 83.6638 3400.19 106.851 3409.98L121.095 3416.21L127.247 3402.23C147.641 3355.88 185.771 3319.16 233.248 3300.14C280.725 3281.12 333.661 3281.36 380.413 3300.81C426.816 3320.66 463.216 3357.76 481.798 3404.15C500.38 3450.53 499.662 3502.5 479.798 3548.9L331.354 3887.64C328.262 3894.65 322.488 3900.21 315.3 3903.09C308.112 3905.97 300.097 3905.93 293.017 3902.99L-48.2342 3760.43C-94.6937 3740.47 -131.084 3703.22 -149.565 3656.69C-168.045 3610.17 -167.138 3558.1 -147.038 3511.69Z" fill="#F09AC2" fill-opacity="0.28"/>
<path d="M159.477 972.489C156.768 969.791 153.542 967.651 149.986 966.194C146.43 964.736 142.615 963.991 138.763 964C134.912 963.991 131.097 964.736 127.54 966.194C123.984 967.651 120.758 969.791 118.049 972.489L116.397 974.175L114.745 972.547C109.266 967.15 101.837 964.118 94.0897 964.118C86.3427 964.118 78.913 967.15 73.4348 972.547C68.0283 977.981 65 985.287 65 992.897C65 1000.51 68.0283 1007.81 73.4348 1013.25L113.387 1052.72C114.217 1053.54 115.342 1054 116.515 1054C117.688 1054 118.813 1053.54 119.643 1052.72L159.595 1013.25C165.004 1007.79 168.022 1000.47 168 992.844C167.978 985.22 164.917 977.91 159.477 972.489Z" fill="#F09AC2" fill-opacity="0.28"/>
<path d="M1360.48 972.489C1357.77 969.791 1354.54 967.651 1350.99 966.194C1347.43 964.736 1343.61 963.991 1339.76 964C1335.91 963.991 1332.1 964.736 1328.54 966.194C1324.98 967.651 1321.76 969.791 1319.05 972.489L1317.4 974.175L1315.74 972.547C1310.27 967.15 1302.84 964.118 1295.09 964.118C1287.34 964.118 1279.91 967.15 1274.43 972.547C1269.03 977.981 1266 985.287 1266 992.897C1266 1000.51 1269.03 1007.81 1274.43 1013.25L1314.39 1052.72C1315.22 1053.54 1316.34 1054 1317.51 1054C1318.69 1054 1319.81 1053.54 1320.64 1052.72L1360.6 1013.25C1366 1007.79 1369.02 1000.47 1369 992.844C1368.98 985.22 1365.92 977.91 1360.48 972.489Z" fill="#F09AC2" fill-opacity="0.28"/>
<path d="M159.477 2541.49C156.768 2538.79 153.542 2536.65 149.986 2535.19C146.43 2533.74 142.615 2532.99 138.763 2533C134.912 2532.99 131.097 2533.74 127.54 2535.19C123.984 2536.65 120.758 2538.79 118.049 2541.49L116.397 2543.17L114.745 2541.55C109.266 2536.15 101.837 2533.12 94.0897 2533.12C86.3427 2533.12 78.913 2536.15 73.4348 2541.55C68.0283 2546.98 65 2554.29 65 2561.9C65 2569.51 68.0283 2576.81 73.4348 2582.25L113.387 2621.72C114.217 2622.54 115.342 2623 116.515 2623C117.688 2623 118.813 2622.54 119.643 2621.72L159.595 2582.25C165.004 2576.79 168.022 2569.47 168 2561.84C167.978 2554.22 164.917 2546.91 159.477 2541.49Z" fill="#F09AC2" fill-opacity="0.28"/>
<path d="M1360.48 2541.49C1357.77 2538.79 1354.54 2536.65 1350.99 2535.19C1347.43 2533.74 1343.61 2532.99 1339.76 2533C1335.91 2532.99 1332.1 2533.74 1328.54 2535.19C1324.98 2536.65 1321.76 2538.79 1319.05 2541.49L1317.4 2543.17L1315.74 2541.55C1310.27 2536.15 1302.84 2533.12 1295.09 2533.12C1287.34 2533.12 1279.91 2536.15 1274.43 2541.55C1269.03 2546.98 1266 2554.29 1266 2561.9C1266 2569.51 1269.03 2576.81 1274.43 2582.25L1314.39 2621.72C1315.22 2622.54 1316.34 2623 1317.51 2623C1318.69 2623 1319.81 2622.54 1320.64 2621.72L1360.6 2582.25C1366 2576.79 1369.02 2569.47 1369 2561.84C1368.98 2554.22 1365.92 2546.91 1360.48 2541.49Z" fill="#F09AC2" fill-opacity="0.28"/>
<path d="M26.6004 1987.43C30.2506 1979.01 35.5541 1971.36 42.2024 1964.94C48.8506 1958.52 56.7105 1953.45 65.3245 1950.02C73.9218 1946.55 83.1095 1944.8 92.3526 1944.85C101.596 1944.91 110.71 1946.78 119.163 1950.35L124.356 1952.62L126.599 1947.52C134.034 1930.62 147.936 1917.23 165.245 1910.3C182.554 1903.37 201.853 1903.45 218.898 1910.54C235.816 1917.78 249.086 1931.31 255.861 1948.22C262.635 1965.13 262.374 1984.08 255.132 2000.99L201.012 2124.49C199.885 2127.05 197.78 2129.07 195.159 2130.12C192.538 2131.17 189.617 2131.16 187.035 2130.09L62.6223 2078.11C45.6841 2070.84 32.4171 2057.26 25.6794 2040.29C18.9416 2023.33 19.2724 2004.35 26.6004 1987.43Z" fill="#F09AC2" fill-opacity="0.28"/>
<path d="M1413.66 3082.43C1410.01 3074.01 1404.71 3066.36 1398.06 3059.94C1391.41 3053.52 1383.55 3048.45 1374.94 3045.02C1366.34 3041.55 1357.15 3039.8 1347.91 3039.85C1338.66 3039.91 1329.55 3041.78 1321.1 3045.35L1315.9 3047.62L1313.66 3042.52C1306.23 3025.62 1292.32 3012.23 1275.02 3005.3C1257.71 2998.37 1238.41 2998.45 1221.36 3005.54C1204.44 3012.78 1191.17 3026.31 1184.4 3043.22C1177.62 3060.13 1177.89 3079.08 1185.13 3095.99L1239.25 3219.49C1240.37 3222.05 1242.48 3224.07 1245.1 3225.12C1247.72 3226.17 1250.64 3226.16 1253.22 3225.09L1377.64 3173.11C1394.58 3165.84 1407.84 3152.26 1414.58 3135.29C1421.32 3118.33 1420.99 3099.35 1413.66 3082.43Z" fill="#F09AC2" fill-opacity="0.28"/>
</g>
</svg>
