<svg width="583" height="57" viewBox="0 0 583 57" fill="none" xmlns="http://www.w3.org/2000/svg">
<path d="M14.73 2.375H24.73V9.9375L24.605 9.125C24.4383 8.41667 24.2717 7.75 24.105 7.125C23.8133 6.375 23.2717 5.6875 22.48 5.0625C20.98 3.97917 18.5217 3.41667 15.105 3.375C13.5217 3.375 12.105 4.08333 10.855 5.5V40.6875C12.0217 41.8542 13.3967 42.4583 14.98 42.5C16.4383 42.4583 17.9175 41.875 19.4175 40.75C20.1675 40.1667 20.6883 39.5 20.98 38.75C21.1883 38.2083 21.3758 37.5417 21.5425 36.75L21.6675 35.9375V24.4375C21.6675 23.2292 21.2717 22.5833 20.48 22.5L17.23 22.125C18.8133 21.7083 20.1467 21.2083 21.23 20.625L24.48 18.875C25.48 20.0833 26.0217 20.7292 26.105 20.8125L27.605 22.25V35.3125C27.605 39.7708 26.7092 43.875 24.9175 47.625C23.1675 51.4167 20.605 54.3125 17.23 56.3125L17.105 56.0625C18.3133 53.9792 19.1675 52.3542 19.6675 51.1875C20.1675 50.0208 20.6258 48.2708 21.0425 45.9375C21.1675 45.1875 21.2925 44.375 21.4175 43.5H13.0425C9.54251 43.5 6.64668 41.7292 4.35501 38.1875C1.85501 34.3542 0.605011 29.375 0.605011 23.25C0.605011 17.6667 1.70918 12.9583 3.91751 9.125C6.54251 4.66667 10.1467 2.41667 14.73 2.375ZM9.54251 38.875V7.625C9.54251 7.625 9.41751 7.875 9.16751 8.375C7.58418 12.0417 6.77168 17 6.73001 23.25C6.73001 28.5417 7.29251 32.8542 8.41751 36.1875C8.75084 37.2292 9.12584 38.125 9.54251 38.875ZM46.585 19.875C47.7933 19.875 48.7725 20.3958 49.5225 21.4375C50.7725 21.0208 51.6892 20.5208 52.2725 19.9375C52.4392 19.7708 52.96 19.2708 53.835 18.4375L53.7725 41.0625V42.0625C52.4392 42.3542 51.4183 42.6875 50.71 43.0625C50.2517 43.3125 49.8142 43.625 49.3975 44L48.21 45.0625L47.835 45.5C47.7517 45.0833 47.585 44.75 47.335 44.5C47.2517 44.4167 47.0225 44.3125 46.6475 44.1875C46.3142 44.0625 46.0433 44 45.835 44H45.46C42.3767 44 40.1475 43.4167 38.7725 42.25C37.3142 41 36.335 39.5833 35.835 38C35.335 36.375 35.085 34.2708 35.085 31.6875C35.085 27.2292 36.335 23.9375 38.835 21.8125C40.3767 20.5208 42.96 19.875 46.585 19.875ZM40.835 32.5C40.835 35.9583 41.1683 38.6458 41.835 40.5625C42.5017 42.4792 43.335 43.4375 44.335 43.4375C45.3767 43.4375 46.2308 42.5417 46.8975 40.75C47.6058 38.9167 47.96 36.1667 47.96 32.5V22.8125C47.6683 22.1458 47.4183 21.75 47.21 21.625L46.085 20.9375H44.335C42.0017 20.9375 40.835 24.7917 40.835 32.5ZM70.94 5.5V44.25C69.6067 44.5417 68.5858 44.875 67.8775 45.25C67.4608 45.4583 67.0233 45.7708 66.565 46.1875C66.3983 46.3958 66.0233 46.75 65.44 47.25L65.0025 47.6875V7.6875C65.0025 6.47917 64.6067 5.83333 63.815 5.75L60.565 5.375C62.1483 4.95833 63.4817 4.45833 64.565 3.875L67.7525 2.125C68.7525 3.375 69.315 4.04167 69.44 4.125L70.94 5.5ZM88.1075 5.5V44.25C86.7742 44.5417 85.7533 44.875 85.045 45.25C84.6283 45.4583 84.1908 45.7708 83.7325 46.1875C83.5658 46.3958 83.1908 46.75 82.6075 47.25L82.17 47.6875V7.6875C82.17 6.47917 81.7742 5.83333 80.9825 5.75L77.7325 5.375C79.3158 4.95833 80.6492 4.45833 81.7325 3.875L84.92 2.125C85.92 3.375 86.4825 4.04167 86.6075 4.125L88.1075 5.5ZM114.9 18.875V30.8125C112.817 31.2708 111.358 31.9167 110.525 32.75L109.025 34.25V31.5H102.963C102.963 36.625 103.275 39.6667 103.9 40.625C104.9 42.2083 106.15 43 107.65 43C109.192 43 110.483 42.5 111.525 41.5C112.567 40.5417 113.15 39.8333 113.275 39.375L114.15 36.5V44H107.525C104.858 44 102.463 43.3125 100.338 41.9375C98.2125 40.5625 97.15 37.1667 97.15 31.75C97.15 26.2917 98.4 22.6458 100.9 20.8125C102.65 19.5208 104.817 18.875 107.4 18.875H114.9ZM102.963 30.125H109.025V19.875H106.4C104.275 19.875 103.129 23.2917 102.963 30.125ZM129.818 21.6875C130.984 21.3542 132.172 20.9167 133.38 20.375C134.588 19.7917 135.484 19.2917 136.068 18.875L136.943 18.375L140.318 21.875L141.443 25.125C140.401 25.3333 139.588 25.6875 139.005 26.1875C138.297 26.7292 137.734 27.4792 137.318 28.4375L136.755 31.125L136.443 29.375C135.651 26.0833 134.693 24.0208 133.568 23.1875C132.318 22.1875 131.068 21.6875 129.818 21.6875ZM129.818 21.6875V42.75C128.484 43.0417 127.463 43.3958 126.755 43.8125C126.338 44.0208 125.901 44.3125 125.443 44.6875L124.38 45.75L123.943 46.1875V23.875C123.943 22.6667 123.526 22 122.693 21.875L119.505 21.5C121.172 21.0417 122.484 20.5417 123.443 20L126.693 18.3125C127.693 19.5208 128.234 20.1667 128.318 20.25L129.818 21.6875ZM149.298 23.0625C149.298 21.8542 148.881 21.2083 148.048 21.125L144.86 20.75C146.527 20.2917 147.839 19.7917 148.798 19.25L152.048 17.5C153.048 18.7083 153.589 19.3542 153.673 19.4375L155.173 20.875V39.875C155.173 41.0833 155.589 41.7292 156.423 41.8125L157.173 41.875L162.235 39.9375C162.318 38.7708 162.339 37.5208 162.298 36.1875V23.0625C162.298 21.8542 161.902 21.2083 161.11 21.125L157.923 20.75C159.506 20.3333 160.818 19.8333 161.86 19.25L165.11 17.5C166.11 18.7083 166.652 19.3542 166.735 19.4375L168.235 20.875V33.9375C168.235 38.3958 167.339 42.5 165.548 46.25C163.798 50.0417 161.256 52.9375 157.923 54.9375L157.735 54.6875C158.943 52.6042 159.798 50.9583 160.298 49.75C160.798 48.5833 161.256 46.8542 161.673 44.5625C161.839 43.6042 161.985 42.5833 162.11 41.5C158.11 42.75 154.881 44.0417 152.423 45.375C151.423 44.1667 150.881 43.5208 150.798 43.4375L149.298 42V23.0625ZM218.695 31.625C218.695 28.25 218.195 25.5833 217.195 23.625C216.237 21.625 215.133 20.6458 213.883 20.6875C212.633 20.7292 211.508 21.7292 210.508 23.6875C209.549 25.6042 209.07 28.2292 209.07 31.5625C209.07 39.0208 210.674 42.7708 213.883 42.8125C217.091 42.8125 218.695 39.0833 218.695 31.625ZM205.883 23.625C207.883 20.9583 210.528 19.625 213.82 19.625C217.112 19.625 219.737 20.9375 221.695 23.5625C223.403 25.8125 224.258 28.5625 224.258 31.8125C224.258 34.5208 223.591 36.9583 222.258 39.125C220.341 42.375 217.549 43.9583 213.883 43.875C210.674 43.875 208.133 42.7083 206.258 40.375C204.466 38.1667 203.549 35.3125 203.508 31.8125C203.508 28.6042 204.299 25.875 205.883 23.625ZM233.3 6.8125L241.675 3.6875C242.217 3.47917 243.113 3 244.363 2.25L245.3 1.75L248.675 5.25L249.8 8.5C248.758 8.70833 247.925 9.04167 247.3 9.5C246.383 10.25 245.842 11 245.675 11.75L245.05 14.5L244.738 12.75C243.946 9.45833 243.008 7.375 241.925 6.5C241.008 5.79167 240.113 5.33333 239.238 5.125V22.5H246.738V23.875H239.238V51.0625C237.904 51.3542 236.863 51.7083 236.113 52.125C235.696 52.3333 235.258 52.625 234.8 53L233.738 54.0625L233.3 54.5V23.875H231.175V22.5H233.3V6.8125ZM292.073 44.3125C290.156 44.7292 288.698 45.375 287.698 46.25C287.531 46.4167 287.01 46.9167 286.135 47.75V6.0625C286.135 4.85417 285.739 4.20833 284.948 4.125H283.823V48H282.448V4.125H276.385C277.843 3.54167 278.843 3.08333 279.385 2.75L282.573 0.8125C283.073 1.72917 283.489 2.25 283.823 2.375L285.635 3.0625H292.073V44.3125ZM307.678 5.5V44.25C306.344 44.5417 305.323 44.875 304.615 45.25C304.198 45.4583 303.761 45.7708 303.303 46.1875C303.136 46.3958 302.761 46.75 302.178 47.25L301.74 47.6875V7.6875C301.74 6.47917 301.344 5.83333 300.553 5.75L297.303 5.375C298.886 4.95833 300.219 4.45833 301.303 3.875L304.49 2.125C305.49 3.375 306.053 4.04167 306.178 4.125L307.678 5.5ZM324.845 5.5V44.25C323.512 44.5417 322.491 44.875 321.783 45.25C321.366 45.4583 320.928 45.7708 320.47 46.1875C320.303 46.3958 319.928 46.75 319.345 47.25L318.908 47.6875V7.6875C318.908 6.47917 318.512 5.83333 317.72 5.75L314.47 5.375C316.053 4.95833 317.387 4.45833 318.47 3.875L321.658 2.125C322.658 3.375 323.22 4.04167 323.345 4.125L324.845 5.5ZM336.075 23.875C336.075 22.6667 335.658 22 334.825 21.875L331.638 21.5C333.221 21.0833 334.533 20.5833 335.575 20L338.825 18.3125C339.825 19.5208 340.367 20.1667 340.45 20.25L341.95 21.6875V40.625C341.95 41.8333 342.367 42.5 343.2 42.625L343.95 42.6875L349.075 40.6875V23.875C349.075 22.6667 348.679 22 347.888 21.875L344.7 21.5C346.367 21.0417 347.679 20.5417 348.638 20L351.888 18.3125C352.888 19.5208 353.429 20.1667 353.513 20.25L355.013 21.6875V42.75C353.679 43.0417 352.658 43.3958 351.95 43.8125C351.533 44.0208 351.096 44.3125 350.638 44.6875L349.575 45.75L349.075 46.1875V42.1875C344.992 43.4792 341.7 44.8125 339.2 46.1875C338.2 44.9792 337.658 44.3333 337.575 44.25L336.075 42.8125V23.875ZM374.305 39.0625C374.972 37.4792 373.347 35.2292 369.43 32.3125C367.388 30.7708 365.951 29.3125 365.118 27.9375C363.534 25.2708 363.826 22.9375 365.993 20.9375C367.409 19.6458 369.118 19 371.118 19C375.743 19.0417 378.972 21.4583 380.805 26.25L377.868 29.375C376.076 28.0417 374.18 27.0417 372.18 26.375C372.972 26.375 373.597 26.2083 374.055 25.875C375.222 25.0417 375.534 23.6875 374.993 21.8125C374.659 20.6042 373.472 20 371.43 20C370.055 20 369.159 20.3125 368.743 20.9375C367.868 22.1042 368.201 24.0417 369.743 26.75C370.409 27.9167 372.743 30.0208 376.743 33.0625C378.743 34.6042 379.743 35.9792 379.743 37.1875C379.743 39.9792 378.555 41.7083 376.18 42.375C374.722 42.7917 372.888 43 370.68 43H364.118V35.5L364.93 38.375C365.055 38.8333 365.638 39.5417 366.68 40.5C367.763 41.5 369.034 42 370.493 42C372.201 42 373.472 41.0208 374.305 39.0625ZM394.598 20.9375V17.125C394.598 15.9167 394.181 15.2708 393.348 15.1875L390.16 14.8125C391.827 14.3542 393.139 13.8542 394.098 13.3125L397.348 11.5625C398.348 12.7708 398.889 13.4167 398.973 13.5L400.473 14.9375V20.9375H405.973V22.3125H400.473V43.375C399.139 43.6667 398.118 44.0208 397.41 44.4375C396.993 44.6458 396.556 44.9375 396.098 45.3125C396.098 45.3125 395.743 45.6667 395.035 46.375L394.598 46.8125V22.3125H389.473V20.9375H394.598ZM421.515 21.6875C422.682 21.3542 423.869 20.9167 425.078 20.375C426.286 19.7917 427.182 19.2917 427.765 18.875L428.64 18.375L432.015 21.875L433.14 25.125C432.098 25.3333 431.286 25.6875 430.703 26.1875C429.994 26.7292 429.432 27.4792 429.015 28.4375L428.453 31.125L428.14 29.375C427.348 26.0833 426.39 24.0208 425.265 23.1875C424.015 22.1875 422.765 21.6875 421.515 21.6875ZM421.515 21.6875V42.75C420.182 43.0417 419.161 43.3958 418.453 43.8125C418.036 44.0208 417.598 44.3125 417.14 44.6875L416.078 45.75L415.64 46.1875V23.875C415.64 22.6667 415.223 22 414.39 21.875L411.203 21.5C412.869 21.0417 414.182 20.5417 415.14 20L418.39 18.3125C419.39 19.5208 419.932 20.1667 420.015 20.25L421.515 21.6875ZM450.308 19.875C451.516 19.875 452.495 20.3958 453.245 21.4375C454.495 21.0208 455.412 20.5208 455.995 19.9375C456.162 19.7708 456.683 19.2708 457.558 18.4375L457.495 41.0625V42.0625C456.162 42.3542 455.141 42.6875 454.433 43.0625C453.974 43.3125 453.537 43.625 453.12 44L451.933 45.0625L451.558 45.5C451.474 45.0833 451.308 44.75 451.058 44.5C450.974 44.4167 450.745 44.3125 450.37 44.1875C450.037 44.0625 449.766 44 449.558 44H449.183C446.099 44 443.87 43.4167 442.495 42.25C441.037 41 440.058 39.5833 439.558 38C439.058 36.375 438.808 34.2708 438.808 31.6875C438.808 27.2292 440.058 23.9375 442.558 21.8125C444.099 20.5208 446.683 19.875 450.308 19.875ZM444.558 32.5C444.558 35.9583 444.891 38.6458 445.558 40.5625C446.224 42.4792 447.058 43.4375 448.058 43.4375C449.099 43.4375 449.953 42.5417 450.62 40.75C451.328 38.9167 451.683 36.1667 451.683 32.5V22.8125C451.391 22.1458 451.141 21.75 450.933 21.625L449.808 20.9375H448.058C445.724 20.9375 444.558 24.7917 444.558 32.5ZM472.288 20.9375V17.125C472.288 15.9167 471.871 15.2708 471.038 15.1875L467.85 14.8125C469.517 14.3542 470.829 13.8542 471.788 13.3125L475.038 11.5625C476.038 12.7708 476.579 13.4167 476.663 13.5L478.163 14.9375V20.9375H483.663V22.3125H478.163V43.375C476.829 43.6667 475.808 44.0208 475.1 44.4375C474.683 44.6458 474.246 44.9375 473.788 45.3125C473.788 45.3125 473.433 45.6667 472.725 46.375L472.288 46.8125V22.3125H467.163V20.9375H472.288ZM489.205 7.6875C490.372 7.35417 491.538 6.91667 492.705 6.375C493.913 5.83333 494.809 5.35417 495.393 4.9375L496.33 4.4375L499.705 7.9375L500.83 11.1875C499.788 11.3958 498.955 11.7292 498.33 12.1875C497.622 12.7292 497.08 13.4792 496.705 14.4375L496.08 17.1875L495.768 15.4375C494.976 12.1458 494.038 10.0625 492.955 9.1875C491.705 8.1875 490.455 7.6875 489.205 7.6875ZM499.268 22.9375V44C497.934 44.2917 496.893 44.6458 496.143 45.0625C495.726 45.2708 495.309 45.5625 494.893 45.9375C494.726 46.1042 494.351 46.4583 493.768 47L493.33 47.4375V25.125C493.33 23.9167 492.934 23.2708 492.143 23.1875L488.893 22.8125C490.559 22.3542 491.893 21.8542 492.893 21.3125L496.08 19.5625C497.08 20.7708 497.643 21.4167 497.768 21.5L499.268 22.9375ZM523.497 31.625C523.497 28.25 522.997 25.5833 521.997 23.625C521.039 21.625 519.935 20.6458 518.685 20.6875C517.435 20.7292 516.31 21.7292 515.31 23.6875C514.352 25.6042 513.872 28.2292 513.872 31.5625C513.872 39.0208 515.477 42.7708 518.685 42.8125C521.893 42.8125 523.497 39.0833 523.497 31.625ZM510.685 23.625C512.685 20.9583 515.331 19.625 518.622 19.625C521.914 19.625 524.539 20.9375 526.497 23.5625C528.206 25.8125 529.06 28.5625 529.06 31.8125C529.06 34.5208 528.393 36.9583 527.06 39.125C525.143 42.375 522.352 43.9583 518.685 43.875C515.477 43.875 512.935 42.7083 511.06 40.375C509.268 38.1667 508.352 35.3125 508.31 31.8125C508.31 28.6042 509.102 25.875 510.685 23.625ZM557.04 21.6875V42.75C555.707 43.0417 554.686 43.3958 553.978 43.8125C553.561 44.0208 553.123 44.3125 552.665 44.6875L551.603 45.75L551.103 46.1875V23.875C551.103 22.6667 550.707 22 549.915 21.875L549.165 21.8125L543.978 23.8125V42.75C542.644 43.0417 541.623 43.3958 540.915 43.8125C540.498 44.0208 540.061 44.3125 539.603 44.6875L538.54 45.75L538.103 46.1875V23.875C538.103 22.6667 537.686 22 536.853 21.875L533.665 21.5C535.332 21.0417 536.644 20.5417 537.603 20L540.853 18.3125C541.853 19.5208 542.394 20.1667 542.478 20.25L543.978 21.6875V22.3125C548.061 21.0208 551.373 19.6875 553.915 18.3125C554.915 19.5208 555.457 20.1667 555.54 20.25L557.04 21.6875ZM576.333 39.0625C576.999 37.4792 575.374 35.2292 571.458 32.3125C569.416 30.7708 567.978 29.3125 567.145 27.9375C565.562 25.2708 565.853 22.9375 568.02 20.9375C569.437 19.6458 571.145 19 573.145 19C577.77 19.0417 580.999 21.4583 582.833 26.25L579.895 29.375C578.103 28.0417 576.208 27.0417 574.208 26.375C574.999 26.375 575.624 26.2083 576.083 25.875C577.249 25.0417 577.562 23.6875 577.02 21.8125C576.687 20.6042 575.499 20 573.458 20C572.083 20 571.187 20.3125 570.77 20.9375C569.895 22.1042 570.228 24.0417 571.77 26.75C572.437 27.9167 574.77 30.0208 578.77 33.0625C580.77 34.6042 581.77 35.9792 581.77 37.1875C581.77 39.9792 580.583 41.7083 578.208 42.375C576.749 42.7917 574.916 43 572.708 43H566.145V35.5L566.958 38.375C567.083 38.8333 567.666 39.5417 568.708 40.5C569.791 41.5 571.062 42 572.52 42C574.228 42 575.499 41.0208 576.333 39.0625Z" fill="#956BAC"/>
</svg>
