<svg width="123" height="45" viewBox="0 0 123 45" fill="none" xmlns="http://www.w3.org/2000/svg">
<path d="M21.0968 6.8864C20.492 6.28689 19.7715 5.81136 18.9774 5.48751C18.1833 5.16365 17.3314 4.99794 16.4714 5.00002C15.6113 4.99794 14.7594 5.16365 13.9653 5.48751C13.1712 5.81136 12.4508 6.28689 11.846 6.8864L11.477 7.2611L11.108 6.89932C9.88471 5.70005 8.22565 5.02632 6.49575 5.02632C4.76584 5.02632 3.10678 5.70005 1.88349 6.89932C0.676223 8.10692 0 9.7305 0 11.4215C0 13.1125 0.676223 14.736 1.88349 15.9436L10.8049 24.7166C10.9902 24.8981 11.2414 25 11.5033 25C11.7652 25 12.0164 24.8981 12.2018 24.7166L21.1232 15.9436C22.3309 14.7321 23.0049 13.1038 23 11.4097C22.995 9.71561 22.3116 8.09119 21.0968 6.8864Z" fill="#956BAC"/>
<path d="M35.4 14.08C36.2 14.44 36.7867 14.8333 37.16 15.26C37.5333 15.6867 37.7533 16.0867 37.82 16.46C37.8867 16.8333 37.8467 17.1467 37.7 17.4C37.5667 17.6533 37.3667 17.8 37.1 17.84C36.8333 17.88 36.56 17.7667 36.28 17.5C36.2667 17.1267 36.2 16.7467 36.08 16.36C35.96 15.96 35.82 15.5733 35.66 15.2C35.5133 14.8133 35.3533 14.4733 35.18 14.18L35.4 14.08ZM35.5 24.18C35.5 24.2467 35.34 24.3667 35.02 24.54C34.7133 24.7133 34.3 24.8 33.78 24.8H33.42V8.54L35.5 7.7V24.18ZM35.46 12.78C35.0733 14.4733 34.4667 16.0333 33.64 17.46C32.8267 18.8733 31.8133 20.14 30.6 21.26L30.36 21.04C30.84 20.2667 31.26 19.4067 31.62 18.46C31.9933 17.5 32.3067 16.5133 32.56 15.5C32.8267 14.4733 33.04 13.46 33.2 12.46H35.46V12.78ZM38.54 8.14C38.3133 8.36667 37.8867 8.39333 37.26 8.22C36.7267 8.39333 36.0867 8.56667 35.34 8.74C34.5933 8.91333 33.8067 9.06667 32.98 9.2C32.1667 9.33333 31.3667 9.44 30.58 9.52L30.52 9.28C31.16 9.01333 31.8267 8.69333 32.52 8.32C33.2133 7.94667 33.8667 7.56 34.48 7.16C35.0933 6.74667 35.5933 6.38 35.98 6.06L38.54 8.14ZM36.82 10.94C36.82 10.94 36.9267 11.0333 37.14 11.22C37.3533 11.4067 37.6067 11.64 37.9 11.92C38.2067 12.1867 38.4733 12.4333 38.7 12.66C38.6467 12.8733 38.4667 12.98 38.16 12.98H30.72L30.56 12.42H35.78L36.82 10.94ZM41.64 5.86C42.4533 5.94 43.08 6.1 43.52 6.34C43.9733 6.56667 44.28 6.82 44.44 7.1C44.6 7.38 44.6533 7.65333 44.6 7.92C44.5467 8.18667 44.4133 8.40667 44.2 8.58C44 8.75333 43.7467 8.84667 43.44 8.86C43.1467 8.86 42.84 8.74 42.52 8.5C42.5067 8.04667 42.3933 7.58667 42.18 7.12C41.98 6.65333 41.7467 6.27333 41.48 5.98L41.64 5.86ZM45.16 10.72L46.1 9.7L48.12 11.2C48.0667 11.2667 47.98 11.34 47.86 11.42C47.7533 11.4867 47.6133 11.5333 47.44 11.56V14.56C47.44 14.6 47.3333 14.66 47.12 14.74C46.92 14.82 46.6867 14.8933 46.42 14.96C46.1533 15.0267 45.9067 15.06 45.68 15.06H45.32V10.72H45.16ZM41.5 14.72C41.5 14.7733 41.4067 14.8533 41.22 14.96C41.0467 15.0533 40.82 15.1467 40.54 15.24C40.2733 15.32 39.9933 15.36 39.7 15.36H39.4V10.72V9.84L41.6 10.72H46.16V11.28H41.5V14.72ZM43.98 17.78L44.7 17.06L46.18 18.18C46.14 18.22 46.0733 18.2667 45.98 18.32C45.8867 18.3733 45.7733 18.4133 45.64 18.44V21.56C45.64 21.6 45.5667 21.66 45.42 21.74C45.2867 21.8067 45.12 21.8733 44.92 21.94C44.7333 22.0067 44.5467 22.04 44.36 22.04H44.12V17.78H43.98ZM42.58 22.06C42.58 22.14 42.44 22.2467 42.16 22.38C41.8933 22.5 41.6 22.56 41.28 22.56H41.04V17.78V17.08L42.66 17.78H44.88V18.34H42.58V22.06ZM40.02 24.04C40.02 24.1067 39.9267 24.1933 39.74 24.3C39.5667 24.42 39.3467 24.52 39.08 24.6C38.8133 24.6933 38.52 24.74 38.2 24.74H37.88V15.98V15.06L40.14 15.98H47.24V16.54H40.02V24.04ZM46.48 15.98L47.4 14.9L49.5 16.48C49.38 16.64 49.1467 16.7533 48.8 16.82V22.5C48.8 22.94 48.7467 23.3133 48.64 23.62C48.5333 23.94 48.3 24.1933 47.94 24.38C47.58 24.5667 47.02 24.6933 46.26 24.76C46.2467 24.4667 46.22 24.2067 46.18 23.98C46.1533 23.7533 46.0867 23.58 45.98 23.46C45.8733 23.3267 45.7333 23.2067 45.56 23.1C45.3867 22.9933 45.1267 22.9067 44.78 22.84V22.6C44.78 22.6 44.84 22.6067 44.96 22.62C45.0933 22.62 45.2467 22.6267 45.42 22.64C45.6067 22.64 45.78 22.6467 45.94 22.66C46.1 22.6733 46.22 22.68 46.3 22.68C46.4467 22.68 46.54 22.6467 46.58 22.58C46.6333 22.5133 46.66 22.4267 46.66 22.32V15.98H46.48ZM47.48 7.2C47.48 7.2 47.5533 7.26 47.7 7.38C47.8467 7.5 48.0333 7.65333 48.26 7.84C48.4867 8.02667 48.72 8.22667 48.96 8.44C49.2 8.65333 49.42 8.85333 49.62 9.04C49.5667 9.25333 49.38 9.36 49.06 9.36H38.06L37.9 8.78H46.28L47.48 7.2ZM44.84 20.84V21.4H41.94V20.84H44.84ZM46.14 13.76V14.34H40.58V13.76H46.14ZM59.8 16.46H69.82L71.12 14.72C71.12 14.72 71.2 14.7867 71.36 14.92C71.52 15.04 71.72 15.2067 71.96 15.42C72.2 15.62 72.4533 15.8333 72.72 16.06C72.9867 16.2867 73.2267 16.5067 73.44 16.72C73.3867 16.9333 73.2 17.04 72.88 17.04H59.96L59.8 16.46ZM61.82 7.1L64.9 8.06C64.86 8.18 64.7733 8.28 64.64 8.36C64.5067 8.42667 64.3333 8.46 64.12 8.46C63.6533 9.92667 63.0733 11.2667 62.38 12.48C61.7 13.6933 60.9067 14.7267 60 15.58L59.74 15.42C60.0467 14.7133 60.3333 13.9067 60.6 13C60.88 12.08 61.12 11.12 61.32 10.12C61.5333 9.10667 61.7 8.1 61.82 7.1ZM65.32 6.26L68.52 6.58C68.4933 6.71333 68.4267 6.83333 68.32 6.94C68.2267 7.04667 68.04 7.12 67.76 7.16V24.06C67.76 24.14 67.66 24.2333 67.46 24.34C67.2733 24.4467 67.0333 24.54 66.74 24.62C66.4467 24.7133 66.14 24.76 65.82 24.76H65.32V6.26ZM61.84 11.02H69.38L70.62 9.36C70.62 9.36 70.7 9.42 70.86 9.54C71.02 9.66 71.2133 9.82 71.44 10.02C71.6667 10.22 71.9067 10.4333 72.16 10.66C72.4267 10.8733 72.66 11.08 72.86 11.28C72.8067 11.4933 72.6267 11.6 72.32 11.6H61.84V11.02ZM56.8 12.42L57.7 11.22L59.76 11.98C59.7333 12.0733 59.6733 12.1533 59.58 12.22C59.4867 12.2867 59.3467 12.3333 59.16 12.36V24.08C59.1467 24.1333 59.04 24.2133 58.84 24.32C58.6533 24.4267 58.4133 24.5267 58.12 24.62C57.84 24.7133 57.54 24.76 57.22 24.76H56.8V12.42ZM58.08 6.04L61.22 7.18C61.1667 7.3 61.0733 7.39333 60.94 7.46C60.82 7.52667 60.64 7.55333 60.4 7.54C59.9333 8.80667 59.4 9.98667 58.8 11.08C58.2133 12.16 57.5533 13.1467 56.82 14.04C56.1 14.92 55.3133 15.7 54.46 16.38L54.22 16.22C54.74 15.3933 55.2467 14.4333 55.74 13.34C56.2333 12.2333 56.68 11.0533 57.08 9.8C57.4933 8.54667 57.8267 7.29333 58.08 6.04ZM93.1 12.2C93.06 12.3333 92.98 12.44 92.86 12.52C92.7533 12.6 92.58 12.6333 92.34 12.62C92.2867 13.58 92.2 14.54 92.08 15.5C91.96 16.4467 91.7733 17.3733 91.52 18.28C91.28 19.1867 90.9267 20.0467 90.46 20.86C90.0067 21.66 89.4067 22.3933 88.66 23.06C87.9133 23.74 86.98 24.3333 85.86 24.84L85.64 24.56C86.68 23.8533 87.5 23.02 88.1 22.06C88.7 21.1 89.14 20.0533 89.42 18.92C89.7133 17.7733 89.9067 16.5733 90 15.32C90.0933 14.0667 90.1533 12.8 90.18 11.52L93.1 12.2ZM92.04 6.78C92 6.91333 91.92 7.02 91.8 7.1C91.68 7.18 91.5067 7.22667 91.28 7.24C90.96 8.37333 90.5867 9.47333 90.16 10.54C89.7467 11.6067 89.28 12.6 88.76 13.52C88.2533 14.4267 87.6933 15.24 87.08 15.96L86.8 15.84C87.0933 14.9733 87.3733 13.9933 87.64 12.9C87.9067 11.8067 88.1467 10.6667 88.36 9.48C88.5867 8.29333 88.7533 7.13333 88.86 6L92.04 6.78ZM92.28 12.3C92.3867 13.94 92.6 15.3933 92.92 16.66C93.24 17.9267 93.74 19.02 94.42 19.94C95.1133 20.8467 96.0467 21.5933 97.22 22.18L97.2 22.42C96.6667 22.5533 96.24 22.8133 95.92 23.2C95.6 23.5867 95.3933 24.12 95.3 24.8C94.6333 24.2667 94.0933 23.58 93.68 22.74C93.2667 21.8867 92.94 20.92 92.7 19.84C92.4733 18.7467 92.3 17.5733 92.18 16.32C92.0733 15.0533 92.0067 13.7267 91.98 12.34L92.28 12.3ZM94.18 10.08L95.32 8.94L97.32 10.84C97.24 10.92 97.14 10.9733 97.02 11C96.9 11.0267 96.74 11.0533 96.54 11.08C96.34 11.4133 96.1 11.7933 95.82 12.22C95.54 12.6333 95.2467 13.0467 94.94 13.46C94.6333 13.86 94.3333 14.2133 94.04 14.52L93.82 14.38C93.9133 13.98 93.9933 13.5133 94.06 12.98C94.14 12.4467 94.2133 11.92 94.28 11.4C94.3467 10.88 94.3933 10.44 94.42 10.08H94.18ZM95.48 10.08V10.66H89.14L89.4 10.08H95.48ZM88.14 8.1C88.06 8.19333 87.96 8.24667 87.84 8.26C87.72 8.27333 87.5533 8.24667 87.34 8.18C86.2467 8.42 85.1067 8.61333 83.92 8.76C82.7333 8.89333 81.5933 8.98 80.5 9.02L80.36 8.72C80.9867 8.52 81.6 8.28 82.2 8C82.8133 7.72 83.4133 7.42 84 7.1C84.5867 6.78 85.1467 6.44667 85.68 6.1L88.14 8.1ZM82.18 8.46C82.1133 8.59333 81.94 8.68 81.66 8.72V13.4C81.66 14.2533 81.6333 15.1733 81.58 16.16C81.5267 17.1333 81.3933 18.1267 81.18 19.14C80.98 20.1533 80.6467 21.14 80.18 22.1C79.7267 23.0467 79.0933 23.9133 78.28 24.7L78.02 24.5C78.5 23.3667 78.84 22.1667 79.04 20.9C79.24 19.6333 79.36 18.3533 79.4 17.06C79.4533 15.7667 79.48 14.52 79.48 13.32V7.58L82.18 8.46ZM85.5 23.72C85.5 23.7733 85.4267 23.8667 85.28 24C85.1333 24.1333 84.92 24.2533 84.64 24.36C84.3733 24.48 84.0467 24.54 83.66 24.54H83.26V12.58H85.5V23.72ZM85.82 10.9C85.82 10.9 85.8933 10.9667 86.04 11.1C86.1867 11.22 86.3733 11.38 86.6 11.58C86.84 11.78 87.0867 11.9933 87.34 12.22C87.5933 12.4333 87.8267 12.6333 88.04 12.82C87.9867 13.0333 87.8 13.14 87.48 13.14H80.5V12.58H84.58L85.82 10.9ZM111.02 21.08C112.807 21.1467 114.28 21.28 115.44 21.48C116.613 21.68 117.527 21.92 118.18 22.2C118.833 22.48 119.28 22.7667 119.52 23.06C119.773 23.3533 119.873 23.6267 119.82 23.88C119.767 24.1333 119.613 24.3333 119.36 24.48C119.12 24.64 118.827 24.72 118.48 24.72C118.133 24.72 117.793 24.6067 117.46 24.38C116.86 23.9133 116.02 23.4 114.94 22.84C113.86 22.2667 112.527 21.7733 110.94 21.36L111.02 21.08ZM118.14 7.32C118.047 7.58667 117.787 7.7 117.36 7.66C116.933 8.02 116.4 8.44 115.76 8.92C115.133 9.38667 114.507 9.8 113.88 10.16H113.62C113.78 9.8 113.94 9.39333 114.1 8.94C114.273 8.47333 114.433 8.00667 114.58 7.54C114.727 7.07333 114.847 6.65333 114.94 6.28L118.14 7.32ZM105.52 6.32C106.387 6.42667 107.067 6.61333 107.56 6.88C108.053 7.14667 108.393 7.44 108.58 7.76C108.78 8.08 108.86 8.39333 108.82 8.7C108.78 9.00667 108.653 9.26 108.44 9.46C108.24 9.64667 107.987 9.75333 107.68 9.78C107.373 9.79333 107.053 9.67333 106.72 9.42C106.707 9.06 106.633 8.7 106.5 8.34C106.367 7.96667 106.2 7.61333 106 7.28C105.8 6.94667 105.58 6.66667 105.34 6.44L105.52 6.32ZM113.2 6.28C113.187 6.4 113.133 6.50667 113.04 6.6C112.947 6.69333 112.78 6.75333 112.54 6.78V10.12H110.18V6.02L113.2 6.28ZM117.44 9.86L118.7 8.58L120.92 10.68C120.84 10.7733 120.747 10.8333 120.64 10.86C120.533 10.8867 120.367 10.9133 120.14 10.94C119.807 11.26 119.367 11.62 118.82 12.02C118.287 12.42 117.787 12.7467 117.32 13L117.16 12.88C117.227 12.5867 117.293 12.26 117.36 11.9C117.427 11.5267 117.487 11.16 117.54 10.8C117.593 10.44 117.633 10.1267 117.66 9.86H117.44ZM104.34 8.7C104.713 9.47333 104.913 10.1733 104.94 10.8C104.967 11.4133 104.88 11.9267 104.68 12.34C104.48 12.7533 104.207 13.04 103.86 13.2C103.513 13.3733 103.16 13.4 102.8 13.28C102.44 13.1467 102.2 12.8933 102.08 12.52C101.987 12.1333 102.04 11.8067 102.24 11.54C102.44 11.2733 102.7 11.08 103.02 10.96C103.327 10.7733 103.593 10.48 103.82 10.08C104.06 9.66667 104.14 9.21333 104.06 8.72L104.34 8.7ZM118.96 9.86V10.44H104.14V9.86H118.96ZM113.92 11.86L114.92 10.78L117.06 12.36C117.007 12.4267 116.913 12.5 116.78 12.58C116.647 12.6467 116.493 12.7 116.32 12.74V14.82C116.32 14.86 116.213 14.9267 116 15.02C115.8 15.1 115.56 15.1733 115.28 15.24C115 15.3067 114.74 15.34 114.5 15.34H114.12V11.86H113.92ZM108.26 15.08C108.26 15.1333 108.16 15.2133 107.96 15.32C107.773 15.4267 107.533 15.52 107.24 15.6C106.96 15.68 106.667 15.72 106.36 15.72H106.06V11.86V10.94L108.38 11.86H114.9V12.42H108.26V15.08ZM114.88 14.22V14.78H106.86V14.22H114.88ZM113.1 18.06C113.06 18.18 112.98 18.2867 112.86 18.38C112.74 18.46 112.56 18.5 112.32 18.5C112.213 19.0867 112.073 19.64 111.9 20.16C111.727 20.68 111.453 21.1667 111.08 21.62C110.72 22.0733 110.193 22.5 109.5 22.9C108.82 23.2867 107.92 23.64 106.8 23.96C105.68 24.28 104.267 24.56 102.56 24.8L102.44 24.46C103.813 24.1 104.947 23.7333 105.84 23.36C106.747 22.9867 107.473 22.5867 108.02 22.16C108.567 21.7333 108.973 21.28 109.24 20.8C109.52 20.3067 109.713 19.7867 109.82 19.24C109.927 18.68 109.993 18.0733 110.02 17.42L113.1 18.06ZM104.96 15.34L107.4 16.3H115.06L116.14 15.06L118.22 16.64C118.167 16.72 118.08 16.7933 117.96 16.86C117.853 16.9267 117.693 16.9733 117.48 17V20.9C117.48 20.94 117.307 21.0267 116.96 21.16C116.613 21.2933 116.14 21.36 115.54 21.36H115.14V16.86H107.18V21.2C107.18 21.28 107.02 21.3867 106.7 21.52C106.38 21.6533 105.933 21.72 105.36 21.72H104.96V16.3V15.34Z" fill="black"/>
<path d="M31.8477 33.4209C32.0846 33.3532 32.3216 33.2643 32.5586 33.1543C32.804 33.0443 32.986 32.9469 33.1045 32.8623L33.2949 32.7607L33.9805 33.4717L34.209 34.1318C33.9974 34.1742 33.8281 34.2419 33.7012 34.335C33.5573 34.445 33.4473 34.5973 33.3711 34.792L33.2441 35.3506L33.1807 34.9951C33.0199 34.3265 32.8294 33.9033 32.6094 33.7256C32.3555 33.5225 32.1016 33.4209 31.8477 33.4209ZM33.8916 36.5186V40.7969C33.6208 40.8561 33.4092 40.9281 33.2568 41.0127C33.1722 41.055 33.0876 41.1143 33.0029 41.1904C32.9691 41.2243 32.8929 41.2962 32.7744 41.4062L32.6855 41.4951V36.9629C32.6855 36.7174 32.6051 36.5863 32.4443 36.5693L31.7842 36.4932C32.1227 36.4001 32.3936 36.2985 32.5967 36.1885L33.2441 35.833C33.4473 36.0785 33.5615 36.2096 33.5869 36.2266L33.8916 36.5186ZM38.4187 32.9766V40.8477C38.1479 40.9069 37.9406 40.9746 37.7967 41.0508C37.712 41.0931 37.6232 41.1566 37.5301 41.2412C37.4962 41.2835 37.4201 41.3555 37.3016 41.457L37.2127 41.5459V33.4209C37.2127 33.1755 37.1323 33.0443 36.9715 33.0273L36.3113 32.9512C36.6329 32.8665 36.9038 32.765 37.1238 32.6465L37.7713 32.291C37.9744 32.5449 38.0887 32.6803 38.1141 32.6973L38.4187 32.9766ZM42.9459 32.9766V40.8477C42.6751 40.9069 42.4677 40.9746 42.3238 41.0508C42.2392 41.0931 42.1503 41.1566 42.0572 41.2412C42.0234 41.2835 41.9472 41.3555 41.8287 41.457L41.7398 41.5459V33.4209C41.7398 33.1755 41.6594 33.0443 41.4986 33.0273L40.8385 32.9512C41.1601 32.8665 41.4309 32.765 41.651 32.6465L42.2984 32.291C42.5016 32.5449 42.6158 32.6803 42.6412 32.6973L42.9459 32.9766ZM46.267 36.709C46.267 36.4635 46.1824 36.3281 46.0131 36.3027L45.3656 36.2266C45.6872 36.1419 45.9538 36.0404 46.1654 35.9219L46.8256 35.5791C47.0287 35.8245 47.1387 35.9557 47.1557 35.9727L47.4604 36.2646V40.1113C47.4604 40.3568 47.545 40.4922 47.7143 40.5176L47.8666 40.5303L48.9076 40.124V36.709C48.9076 36.4635 48.8272 36.3281 48.6664 36.3027L48.0189 36.2266C48.3575 36.1335 48.6241 36.0319 48.8188 35.9219L49.4789 35.5791C49.682 35.8245 49.7921 35.9557 49.809 35.9727L50.1137 36.2646V40.543C49.8428 40.6022 49.6355 40.6742 49.4916 40.7588C49.407 40.8011 49.3181 40.8604 49.225 40.9365L49.0092 41.1523L48.9076 41.2412V40.4287C48.0782 40.6911 47.4096 40.9619 46.9018 41.2412C46.6986 40.9958 46.5886 40.8646 46.5717 40.8477L46.267 40.5557V36.709ZM55.0725 39.7939C55.2079 39.4723 54.8778 39.0153 54.0822 38.4229C53.6675 38.1097 53.3755 37.8135 53.2062 37.5342C52.8846 36.9925 52.9439 36.5186 53.384 36.1123C53.6717 35.8499 54.0187 35.7188 54.425 35.7188C55.3645 35.7272 56.0204 36.2181 56.3928 37.1914L55.7961 37.8262C55.4322 37.5553 55.0471 37.3522 54.6408 37.2168C54.8016 37.2168 54.9286 37.1829 55.0217 37.1152C55.2587 36.946 55.3221 36.6709 55.2121 36.29C55.1444 36.0446 54.9032 35.9219 54.4885 35.9219C54.2092 35.9219 54.0272 35.9854 53.9426 36.1123C53.7648 36.3493 53.8326 36.7428 54.1457 37.293C54.2811 37.5299 54.7551 37.9574 55.5676 38.5752C55.9738 38.8883 56.177 39.1676 56.177 39.4131C56.177 39.9801 55.9357 40.3314 55.4533 40.4668C55.1571 40.5514 54.7847 40.5938 54.3361 40.5938H53.0031V39.0703L53.1682 39.6543C53.1936 39.7474 53.312 39.8913 53.5236 40.0859C53.7437 40.2891 54.0018 40.3906 54.298 40.3906C54.6451 40.3906 54.9032 40.1917 55.0725 39.7939ZM60.2344 36.1123V35.3379C60.2344 35.0924 60.1497 34.9613 59.9805 34.9443L59.333 34.8682C59.6715 34.7751 59.9382 34.6735 60.1328 34.5635L60.793 34.208C60.9961 34.4535 61.1061 34.5846 61.123 34.6016L61.4277 34.8936V36.1123H62.5449V36.3916H61.4277V40.6699C61.1569 40.7292 60.9495 40.8011 60.8057 40.8857C60.721 40.9281 60.6322 40.9873 60.5391 41.0635C60.5391 41.0635 60.4671 41.1354 60.3232 41.2793L60.2344 41.3682V36.3916H59.1934V36.1123H60.2344ZM66.742 36.2646C66.979 36.1969 67.2202 36.1081 67.4656 35.998C67.7111 35.8796 67.893 35.778 68.0115 35.6934L68.1893 35.5918L68.8748 36.3027L69.1033 36.9629C68.8917 37.0052 68.7267 37.0771 68.6082 37.1787C68.4643 37.2887 68.3501 37.4411 68.2654 37.6357L68.1512 38.1816L68.0877 37.8262C67.9269 37.1576 67.7322 36.7386 67.5037 36.5693C67.2498 36.3662 66.9959 36.2646 66.742 36.2646ZM66.742 36.2646V40.543C66.4712 40.6022 66.2638 40.6742 66.1199 40.7588C66.0353 40.8011 65.9464 40.8604 65.8533 40.9365L65.6375 41.1523L65.5486 41.2412V36.709C65.5486 36.4635 65.464 36.3281 65.2947 36.3027L64.6473 36.2266C64.9858 36.1335 65.2524 36.0319 65.4471 35.9219L66.1072 35.5791C66.3104 35.8245 66.4204 35.9557 66.4373 35.9727L66.742 36.2646ZM73.6305 35.8965C73.8759 35.8965 74.0748 36.0023 74.2271 36.2139C74.4811 36.1292 74.6673 36.0277 74.7857 35.9092C74.8196 35.8753 74.9254 35.7738 75.1031 35.6045L75.0904 40.2002V40.4033C74.8196 40.4626 74.6122 40.5303 74.4684 40.6064C74.3753 40.6572 74.2864 40.7207 74.2018 40.7969L73.9605 41.0127L73.8844 41.1016C73.8674 41.0169 73.8336 40.9492 73.7828 40.8984C73.7659 40.8815 73.7193 40.8604 73.6432 40.835C73.5755 40.8096 73.5204 40.7969 73.4781 40.7969H73.402C72.7757 40.7969 72.3229 40.6784 72.0436 40.4414C71.7473 40.1875 71.5484 39.8997 71.4469 39.5781C71.3453 39.248 71.2945 38.8206 71.2945 38.2959C71.2945 37.3903 71.5484 36.7217 72.0563 36.29C72.3694 36.0277 72.8941 35.8965 73.6305 35.8965ZM72.4625 38.4609C72.4625 39.1634 72.5302 39.7093 72.6656 40.0986C72.801 40.488 72.9703 40.6826 73.1734 40.6826C73.385 40.6826 73.5585 40.5007 73.6939 40.1367C73.8378 39.7643 73.9098 39.2057 73.9098 38.4609V36.4932C73.8505 36.3577 73.7997 36.2773 73.7574 36.252L73.5289 36.1123H73.1734C72.6995 36.1123 72.4625 36.8952 72.4625 38.4609ZM79.1352 36.1123V35.3379C79.1352 35.0924 79.0505 34.9613 78.8812 34.9443L78.2338 34.8682C78.5723 34.7751 78.8389 34.6735 79.0336 34.5635L79.6937 34.208C79.8969 34.4535 80.0069 34.5846 80.0238 34.6016L80.3285 34.8936V36.1123H81.4457V36.3916H80.3285V40.6699C80.0577 40.7292 79.8503 40.8011 79.7064 40.8857C79.6218 40.9281 79.5329 40.9873 79.4398 41.0635C79.4398 41.0635 79.3679 41.1354 79.224 41.2793L79.1352 41.3682V36.3916H78.0941V36.1123H79.1352ZM83.6115 33.4209C83.8485 33.3532 84.0855 33.2643 84.3225 33.1543C84.5679 33.0443 84.7499 32.9469 84.8684 32.8623L85.0588 32.7607L85.7443 33.4717L85.9729 34.1318C85.7613 34.1742 85.592 34.2419 85.465 34.335C85.3212 34.445 85.2111 34.5973 85.135 34.792L85.008 35.3506L84.9445 34.9951C84.7837 34.3265 84.5933 33.9033 84.3732 33.7256C84.1193 33.5225 83.8654 33.4209 83.6115 33.4209ZM85.6555 36.5186V40.7969C85.3846 40.8561 85.173 40.9281 85.0207 41.0127C84.9361 41.055 84.8514 41.1143 84.7668 41.1904C84.7329 41.2243 84.6568 41.2962 84.5383 41.4062L84.4494 41.4951V36.9629C84.4494 36.7174 84.369 36.5863 84.2082 36.5693L83.548 36.4932C83.8866 36.4001 84.1574 36.2985 84.3605 36.1885L85.008 35.833C85.2111 36.0785 85.3254 36.2096 85.3508 36.2266L85.6555 36.5186ZM91.6172 38.2832C91.6172 37.5977 91.5156 37.056 91.3125 36.6582C91.1178 36.252 90.8936 36.0531 90.6396 36.0615C90.3857 36.07 90.1572 36.2731 89.9541 36.6709C89.7594 37.0602 89.6621 37.5934 89.6621 38.2705C89.6621 39.7855 89.988 40.5472 90.6396 40.5557C91.2913 40.5557 91.6172 39.7982 91.6172 38.2832ZM89.0146 36.6582C89.4209 36.1165 89.9583 35.8457 90.627 35.8457C91.2956 35.8457 91.8288 36.1123 92.2266 36.6455C92.5736 37.1025 92.7471 37.6611 92.7471 38.3213C92.7471 38.8714 92.6117 39.3665 92.3408 39.8066C91.9515 40.4668 91.3844 40.7884 90.6396 40.7715C89.988 40.7715 89.4717 40.5345 89.0908 40.0605C88.7269 39.612 88.5407 39.0322 88.5322 38.3213C88.5322 37.6696 88.693 37.1152 89.0146 36.6582ZM99.4705 36.2646V40.543C99.1997 40.6022 98.9923 40.6742 98.8484 40.7588C98.7638 40.8011 98.6749 40.8604 98.5818 40.9365L98.366 41.1523L98.2645 41.2412V36.709C98.2645 36.4635 98.1841 36.3281 98.0232 36.3027L97.8709 36.29L96.8172 36.6963V40.543C96.5464 40.6022 96.339 40.6742 96.1951 40.7588C96.1105 40.8011 96.0216 40.8604 95.9285 40.9365L95.7127 41.1523L95.6238 41.2412V36.709C95.6238 36.4635 95.5392 36.3281 95.3699 36.3027L94.7225 36.2266C95.061 36.1335 95.3276 36.0319 95.5223 35.9219L96.1824 35.5791C96.3855 35.8245 96.4956 35.9557 96.5125 35.9727L96.8172 36.2646V36.3916C97.6466 36.1292 98.3195 35.8584 98.8357 35.5791C99.0389 35.8245 99.1489 35.9557 99.1658 35.9727L99.4705 36.2646Z" fill="black"/>
</svg>
