<svg width="728" height="91" viewBox="0 0 728 91" fill="none" xmlns="http://www.w3.org/2000/svg">
<g filter="url(#filter0_d_36_71)">
<path d="M8.84375 80.7812H5.65625C4.90625 80.7812 4.0625 81.0938 3.125 81.7188C1.6875 82.7188 0.75 83.9375 0.3125 85.375L0.03125 86.0312V12.9062H14.4688V80.7812C13.7188 80.7812 12.9062 81.0938 12.0312 81.7188C10.5938 82.7188 9.625 83.9375 9.125 85.375L8.84375 86.0312V80.7812ZM8.84375 17.4062C8.84375 16.7187 8.65625 16.2188 8.28125 15.9062L7.4375 14.9688H6.96875C6.59375 14.9688 6.3125 15.2813 6.125 15.9062L5.65625 17.3125V33.4375H8.84375V17.4062ZM5.65625 35.4062V55.9375H8.84375V35.4062H5.65625ZM5.65625 57.9062V76.2812C5.65625 76.9688 5.8125 77.5 6.125 77.875L6.96875 78.7188H7.34375C7.65625 78.7188 7.96875 78.4375 8.28125 77.875L8.84375 76.2812V57.9062H5.65625ZM39.9688 69.1562V71.5938C39.9688 78.4688 41.25 83.875 43.8125 87.8125L43.625 87.9062C36.9375 83.5312 33.5625 77.2812 33.5 69.1562H39.9688ZM20.9375 69.1562H27.4062C27.4062 77.2812 24.0312 83.5312 17.2812 87.9062L17.0938 87.8125C19.6562 83.875 20.9375 78.4688 20.9375 71.5938V69.1562ZM28.4375 24.5312C26.6875 25.2188 25.6875 26.7188 25.4375 29.0312V35.125H35.0938V28.8438C34.5938 26.3438 33.7188 24.9062 32.4688 24.5312H28.4375ZM32.0938 47.5938C33.0312 47.2812 33.7188 46.8125 34.1562 46.1875C34.5312 45.5625 34.8438 44.5312 35.0938 43.0938V37.0938H25.4375V43.0938C25.6875 44.5312 26.0312 45.5625 26.4688 46.1875C26.8438 46.8125 27.5 47.2812 28.4375 47.5938H32.0938ZM45.0312 22.5625C43.9062 22.5625 42.75 23 41.5625 23.875V49.6562C40.625 49.7188 39.5 50.125 38.1875 50.875C36.875 51.625 35.9688 52.75 35.4688 54.25L35.0938 54.9062V49.6562H25.4375C24.5 49.7188 23.375 50.125 22.0625 50.875C20.75 51.625 19.8438 52.75 19.3438 54.25L18.9688 54.9062V23.6875C17.4688 24.6875 16.4375 25.8125 15.875 27.0625L15.5 27.9062V11.0312H45.0312V22.5625ZM27.0312 63.25V61.375C27.0312 59.875 26.75 58.5625 26.1875 57.4375C25.6875 56.3125 24.9375 55.75 23.9375 55.75C26.1875 54.75 28.0938 53.4062 29.6562 51.7188L30.4062 50.9688L33.5938 56.2188V63.25H44.8438V65.3125H15.6875V63.25H27.0312ZM22.0625 22.4688H38.4688V17.5C38.2188 16 37.9688 15.0625 37.7188 14.6875C37.0312 13.75 36.3125 13.1875 35.5625 13H24.9688C24.0312 13.375 23.375 13.875 23 14.5C22.6875 15.125 22.375 16.125 22.0625 17.5V22.4688ZM73.1862 11.5C74.3737 11 75.5612 10.3437 76.7487 9.53125C77.9987 8.71875 78.905 8 79.4675 7.375L80.405 6.4375L83.3112 11.7812V22.9375H87.4362V25H83.3112V29.6875L87.8112 37.0938L89.405 42.7188C89.03 42.7812 88.4987 43.0625 87.8112 43.5625C86.8112 44.375 86.2175 45.3438 86.03 46.4688L85.4675 50.5L85.3737 48.8125C85.2487 47.6875 84.5612 45.375 83.3112 41.875V84.5312C83.2487 84.4688 82.2175 84.9375 80.2175 85.9375C79.7175 86.1875 79.1862 86.6562 78.6237 87.3438C78.4362 87.5312 78.0612 88.125 77.4987 89.125L77.1237 89.875L77.2175 55.8438C75.03 61.4688 72.3112 65.5938 69.0612 68.2188L68.78 67.9375C70.28 65.3125 71.8112 61.0625 73.3737 55.1875C74.9362 49.0625 75.8425 43.4375 76.0925 38.3125L76.5612 25H69.8112V22.9375H77.1237V15.4375C77.1237 14.25 76.7487 13.3125 75.9987 12.625C75.3112 11.875 74.3737 11.5 73.1862 11.5ZM96.4362 50.5938V38.875C93.4362 45.1875 89.1237 50.4062 83.4987 54.5312L83.2175 54.25C85.3425 51.375 87.655 47.1562 90.155 41.5938C91.9675 37.5312 93.3112 33.625 94.1862 29.875H102.717H105.061L106.842 32.5C108.03 34.3125 109.78 37.625 112.092 42.4375C113.53 45.5625 115.311 47.125 117.436 47.125C115.374 48.25 113.124 49.8125 110.686 51.8125L107.405 46.6562C106.217 42.4688 105.186 38.875 104.311 35.875C103.499 32.875 102.967 30.875 102.717 29.875V45.3438C101.842 45.3438 100.686 45.7812 99.2487 46.6562C98.4362 47.0938 97.9362 47.5625 97.7487 48.0625C97.6862 48.1875 97.3737 48.8125 96.8112 49.9375L96.4362 50.5938ZM100.28 62.5938C102.592 61.5312 104.561 60.1562 106.186 58.4688L106.936 57.5312L110.03 62.9688V65.0312C109.842 66.7188 109.686 68.375 109.561 70H112.842V71.9688H109.186C107.499 79.7188 104.53 85.6562 100.28 89.7812L100.092 89.4062C101.655 85.0312 102.592 81.75 102.905 79.5625C103.28 77.3125 103.53 74.7812 103.655 71.9688H96.8112C96.0612 71.9688 94.9987 72.375 93.6237 73.1875C92.4362 73.875 91.53 74.9688 90.905 76.4688L90.53 77.3125V56.7812H84.905V54.7188H90.53V53.7812C90.53 52.5938 90.1862 51.6562 89.4987 50.9688C88.8112 50.2188 87.9362 49.8438 86.8737 49.8438C88.3112 49.1562 89.6237 48.3438 90.8112 47.4062C91.9987 46.4062 92.655 45.8438 92.78 45.7188L93.8112 44.7812L96.8112 50.0312V54.7188H114.624V56.7812H96.8112V70H103.749C103.811 68.375 103.811 67.0938 103.749 66.1562C103.749 65.2188 103.405 64.375 102.717 63.625C102.092 62.875 101.28 62.5312 100.28 62.5938ZM95.78 22.1875C93.655 22.875 92.3737 24.7812 91.9362 27.9062H91.1862C90.4362 23.4062 89.5612 20.5313 88.5612 19.2812C87.5612 17.9688 86.4987 17.3125 85.3737 17.3125C87.2487 16.5 89.1237 15.1875 90.9987 13.375L91.7487 12.625L94.8425 17.6875L95.78 22.1875ZM105.624 27.9062H104.124C105.436 23.7188 105.999 20.8125 105.811 19.1875C105.686 17.5 105.436 16.3437 105.061 15.7188C104.749 15.0312 104.124 14.6875 103.186 14.6875C105.249 13.6875 106.936 12.375 108.249 10.75L108.905 10L111.811 15.0625C111.811 18.875 111.405 21.4062 110.592 22.6562C109.842 23.9062 108.186 25.6562 105.624 27.9062ZM85.655 27.9062H113.686V29.875H85.655V27.9062ZM96.4362 15.4375C96.4362 14.3125 96.0925 13.4063 95.405 12.7188C94.78 11.9688 93.905 11.5938 92.78 11.5938C93.8425 11.1563 94.9987 10.5 96.2487 9.625C96.6862 9.25 97.53 8.5 98.78 7.375L99.7175 6.53125L102.717 11.7812V28.5625H96.4362V15.4375ZM153.654 27.25H170.716C174.216 27.25 176.716 27.6875 178.216 28.5625C181.466 30.4375 183.466 32.5938 184.216 35.0312C185.279 38.5312 185.81 43.3125 185.81 49.375C185.872 62.5 185.872 70.125 185.81 72.25C185.685 76.0625 184.529 79.4688 182.341 82.4688C181.341 83.8438 179.935 84.9375 178.122 85.75C176.247 86.5 174.904 86.9062 174.091 86.9688L172.31 87.0625C174.872 86.25 176.404 83.125 176.904 77.6875L177.091 58.375V40.9375C177.091 35.8125 176.341 32.7188 174.841 31.6562C172.466 29.8438 169.779 28.9062 166.779 28.8438V79.9375C164.029 80.5625 161.841 81.5625 160.216 82.9375L158.435 84.4375L157.872 85.1875C157.622 84.1875 157.091 83.5625 156.279 83.3125C155.466 83.0625 154.997 82.9375 154.872 82.9375H154.31C149.685 82.9375 146.31 82.0312 144.185 80.2188C140.56 77.1562 138.747 69.1875 138.747 56.3125C138.747 41.4375 140.622 32.5625 144.372 29.6875C146.497 28.0625 149.591 27.25 153.654 27.25ZM147.466 57.625C147.466 62.1875 147.935 67.4062 148.872 73.2812C149.872 79.1562 151.122 82.0938 152.622 82.0938C154.247 82.0938 155.529 79.2812 156.466 73.6562C157.404 67.9688 157.872 62.625 157.872 57.625C157.872 38.4375 156.497 28.8438 153.747 28.8438C149.56 28.8438 147.466 38.4375 147.466 57.625ZM251.09 33.1562H255.402V35.125H251.09V63.0625C249.84 63.0625 248.527 63.3438 247.152 63.9062C244.715 64.9688 243.059 66.4375 242.184 68.3125V63.0625H237.402C234.59 63.0625 232.184 64.0625 230.184 66.0625C229.309 66.875 228.746 67.625 228.496 68.3125V35.125H224.184V83.3125H253.621V85.2812H224.184C222.934 85.2812 221.621 85.5938 220.246 86.2188C217.809 87.2812 216.152 88.75 215.277 90.625V35.125H210.027V33.1562H215.277V19.1875C215.277 17.6875 214.902 16.375 214.152 15.25C213.402 14.125 212.34 13.5625 210.965 13.5625C214.152 12.5 216.809 11.1563 218.934 9.53125L219.965 8.6875L224.184 14.0312V33.1562H228.496V16.9375C228.496 15.4375 228.121 14.125 227.371 13C226.621 11.875 225.559 11.3125 224.184 11.3125C227.371 10.25 230.027 8.90625 232.152 7.28125L233.184 6.4375L237.402 11.7812V33.1562H242.184V19.1875C242.184 17.6875 241.809 16.375 241.059 15.25C240.309 14.125 239.246 13.5625 237.871 13.5625C241.059 12.5 243.715 11.1563 245.84 9.53125L246.871 8.6875L251.09 14.0312V33.1562ZM242.184 35.125H237.402V61H242.184V35.125ZM314.026 16.1875C313.276 14 311.932 12.6875 309.995 12.25H308.12V24.625H314.026V16.1875ZM292.464 32.7812C293.151 34.9062 294.495 36.2188 296.495 36.7188H298.276V26.5938H292.464V32.7812ZM298.276 12.3438H296.495C295.37 12.7188 294.495 13.2188 293.87 13.8438L292.464 16.2812V24.625H298.276V12.3438ZM309.995 36.625C312.245 36 313.589 34.8438 314.026 33.1562V26.5938H308.12V36.625H309.995ZM312.057 51.25C310.807 44.8125 309.87 40.625 309.245 38.6875L298.276 38.7812C296.839 42.7812 294.901 46.25 292.464 49.1875L298.37 55.4688V58.2812C298.37 64.9688 297.026 71.1562 294.339 76.8438C291.714 82.4688 287.901 86.7812 282.901 89.7812L282.62 89.4062C284.932 85.2812 286.495 81.4688 287.307 77.9688C288.12 74.4688 288.526 69.0312 288.526 61.6562V59.125C288.526 57.5 287.557 56.3125 285.62 55.5625L285.714 55.4688C283.964 56.7812 282.026 58 279.901 59.125L279.62 58.9375C282.307 55.875 284.995 51.3438 287.682 45.3438C288.62 43.1562 289.37 40.9688 289.932 38.7812H282.995V10.2812H323.495V38.6875H315.807C315.932 38.875 316.62 40.0312 317.87 42.1562C319.12 44.2812 320.276 46.875 321.339 49.9375L322.37 51.9062C323.245 53.7812 324.057 55.0312 324.807 55.6562C325.557 56.2812 326.714 56.5938 328.276 56.5938C324.589 57.7188 321.401 59.0312 318.714 60.5312L317.495 61.1875V84.25C315.995 84.25 314.464 84.5625 312.901 85.1875C311.339 85.875 310.339 86.4375 309.901 86.875C309.526 87.3125 308.776 88.1875 307.651 89.5V59.125C307.651 57.9375 307.12 57 306.057 56.3125C304.995 55.5625 303.651 55.1875 302.026 55.1875C305.776 54.125 309.12 52.8125 312.057 51.25ZM359.9 61.4688C358.087 59.9688 356.806 59.0938 356.056 58.8438L350.056 56.4062C352.181 56.5312 353.931 56.4375 355.306 56.125C355.619 56.0625 355.962 55.8438 356.337 55.4688C356.837 54.9688 357.119 54.6562 357.181 54.5312L357.462 54.0625C360.525 45.8125 362.931 40.2812 364.681 37.4688C365.931 35.3438 368.025 32.7812 370.962 29.7812C370.4 29.4688 369.619 29.25 368.619 29.125L366.181 29.0312L365.244 29.125C368.494 27.9375 370.4 27.1875 370.962 26.875L375.65 24.25L380.525 29.125L395.619 79.75C393.681 80.4375 392.275 81.1562 391.4 81.9062C390.837 82.4062 390.369 83.1875 389.994 84.25C389.619 85.25 389.369 86.1875 389.244 87.0625L389.15 88.1875L373.119 33.5312C372.869 32.5938 372.556 31.8438 372.181 31.2812C370.869 35.0312 370.181 37.0312 370.119 37.2812L365.525 56.4062C365.275 56.4062 364.337 57.1875 362.712 58.75C361.087 60.25 360.15 61.1562 359.9 61.4688ZM450.774 50.2188C450.836 50.5312 450.961 50.9062 451.149 51.3438C451.399 51.7812 452.055 52.375 453.117 53.125C454.18 53.8125 455.524 54.1562 457.149 54.1562C457.961 54.1562 458.836 54.0625 459.774 53.875C460.711 53.6875 461.399 53.4688 461.836 53.2188L462.586 53.0312C459.899 55.0312 457.399 56.0312 455.086 56.0312L450.774 55.75V81.25C448.774 81.6875 447.242 82.2188 446.18 82.8438C445.555 83.1562 444.899 83.625 444.211 84.25C443.524 84.8125 442.961 85.3125 442.524 85.75L441.961 86.4062C441.836 85.7812 441.555 85.3125 441.117 85C440.992 84.875 440.68 84.7188 440.18 84.5312C439.68 84.3438 439.242 84.2188 438.867 84.1562H438.305C433.742 84.2188 430.399 83.375 428.274 81.625C426.086 79.75 424.617 77.7188 423.867 75.5312C423.18 73.3438 422.836 70.5938 422.836 67.2812C422.836 60.9062 424.711 56.3125 428.461 53.5C430.461 51.9375 433.649 51.0938 438.024 50.9688C439.649 50.8438 440.649 50.5938 441.024 50.2188L441.961 48.8125V27.25C441.711 25.4375 441.086 24.3438 440.086 23.9688C438.899 23.5312 437.367 23.375 435.492 23.5C436.305 23.375 438.211 22.625 441.211 21.25C444.211 19.875 445.836 19 446.086 18.625C446.086 18.875 446.774 19.75 448.149 21.25C449.524 22.75 450.399 23.5 450.774 23.5V32.7812C451.149 33.5938 451.524 34.1875 451.899 34.5625L453.586 35.5938H457.992C458.992 35.3438 459.711 35.0312 460.149 34.6562C460.399 34.4062 460.617 34.125 460.805 33.8125C461.055 33.4375 461.211 33.0938 461.274 32.7812L461.367 32.4062V37.1875H453.586C452.836 37.4375 452.274 37.75 451.899 38.125L450.774 40V50.2188ZM431.461 68.5C431.461 73.0625 431.93 76.6875 432.867 79.375C433.867 82.0625 435.117 83.4062 436.617 83.4062C438.18 83.4062 439.461 82.1562 440.461 79.6562C441.461 77.0938 441.961 73.375 441.961 68.5C441.961 57.25 440.18 51.625 436.617 51.625C433.18 51.625 431.461 57.25 431.461 68.5ZM502.366 25.75C504.116 25.25 505.866 24.5938 507.616 23.7812C509.429 22.9062 510.804 22.1875 511.741 21.625L513.054 20.7812L518.116 26.125L519.804 30.9062C518.241 31.2188 516.991 31.75 516.054 32.5C514.991 33.3125 514.179 34.4375 513.616 35.875L512.679 39.9062L512.304 37.375C511.116 32.4375 509.679 29.3125 507.991 28C506.116 26.5 504.241 25.75 502.366 25.75ZM514.272 41.0312H493.929L500.772 37.75C500.71 37.8125 500.929 38.125 501.429 38.6875C501.929 39.1875 502.491 39.4375 503.116 39.4375H518.116C519.304 39.4375 520.679 39.9062 522.241 40.8438C525.554 42.7188 527.585 44.8438 528.335 47.2188C529.647 51.6562 530.179 56.5312 529.929 61.8438L529.835 64.5625C529.897 68.6875 529.897 71.5625 529.835 73.1875C529.71 77 528.554 80.4375 526.366 83.5C525.366 84.875 523.96 85.9375 522.147 86.6875C520.397 87.5 519.054 87.9375 518.116 88L516.335 88.0938C518.897 87.2812 520.429 84.1562 520.929 78.7188L521.116 65.875V53.2188C521.116 49.7188 520.366 46.5938 518.866 43.8438C518.179 42.6562 517.585 41.9062 517.085 41.5938C516.647 41.2188 515.71 41.0312 514.272 41.0312ZM564.834 27.7188C565.209 27.7188 566.552 27.125 568.865 25.9375C571.24 24.75 572.49 24 572.615 23.6875C573.052 24.75 573.459 25.3438 573.834 25.4688L575.896 26.2188H601.396V26.5938C601.771 31.7188 600.615 36.1562 597.927 39.9062C596.927 41.2812 595.552 42.3438 593.802 43.0938C591.99 43.9062 590.646 44.3438 589.771 44.4062L587.896 44.5C589.334 44.125 590.396 43 591.084 41.125C592.021 38.3125 592.521 36.3438 592.584 35.2188L592.771 28V27.7188H564.834ZM601.771 84.25H564.74L564.646 80.2188C564.584 75.7188 565.771 71.7188 568.209 68.2188C569.209 66.8438 570.584 65.7812 572.334 65.0312C574.146 64.2188 575.521 63.7812 576.459 63.7188L578.24 63.625C576.802 64 575.677 65.3438 574.865 67.6562C574.052 70.0938 573.646 71.875 573.646 73L573.459 80.2188C573.896 81.2812 574.302 81.875 574.677 82L576.646 82.6562H592.771C594.771 82.2812 596.521 81.5 598.021 80.3125C599.459 79.125 600.302 78.0938 600.552 77.2188L601.771 73V84.25ZM636.583 25.75C639.645 24.8125 642.77 23.4062 645.958 21.5312L647.27 20.7812L652.333 26.0312L654.02 30.9062C652.458 31.2188 651.114 31.8438 649.989 32.7812C648.864 33.6562 648.145 34.6875 647.833 35.875L646.989 39.9062L646.52 37.2812C645.333 32.3438 643.833 29.1875 642.02 27.8125C640.27 26.4375 638.458 25.75 636.583 25.75ZM654.489 44.4062H671.551V46H667.239C665.676 46 662.676 48.4375 658.239 53.3125C653.864 58.125 651.458 61.1875 651.02 62.5C649.52 67.875 649.458 71.9062 650.833 74.5938C653.583 80.2188 657.083 83.0312 661.333 83.0312C666.02 83.0312 668.395 80.4688 668.458 75.3438L668.364 84.5312H657.301C652.364 84.5312 648.489 83.0312 645.676 80.0312C642.926 77.0312 641.551 73.75 641.551 70.1875C641.551 66.625 642.083 64.0625 643.145 62.5C646.645 57.3125 652.676 51.8125 661.239 46H634.895C635.27 46 636.614 45.4062 638.926 44.2188C641.301 42.9688 642.551 42.2188 642.676 41.9688C643.176 43.0312 643.583 43.625 643.895 43.75L645.958 44.4062H652.333C653.895 42.8438 654.895 41.7188 655.333 41.0312C655.833 40.3438 656.583 38.875 657.583 36.625C658.833 34.0625 659.614 31.5938 659.926 29.2188C660.239 26.8438 659.864 25.5625 658.801 25.375L654.02 24.8125C656.645 24.125 658.77 23.375 660.395 22.5625L665.645 20.0312C666.27 21.1562 666.958 22.125 667.708 22.9375L669.489 25.0938C667.864 33.9062 662.864 40.3438 654.489 44.4062ZM709.925 70C709.3 71.3125 708.987 72.9062 708.987 74.7812C708.987 76.6562 709.3 78.25 709.925 79.5625C710.612 80.875 711.394 81.5312 712.269 81.5312C713.144 81.5312 713.894 80.875 714.519 79.5625C715.206 78.25 715.55 76.6562 715.55 74.7812C715.55 72.9062 715.206 71.3125 714.519 70C713.894 68.6875 713.144 68.0312 712.269 68.0312C711.394 68.0312 710.612 68.6875 709.925 70ZM706.269 80.7812C704.644 79.0938 703.831 77.0938 703.831 74.7812C703.831 72.4688 704.644 70.5 706.269 68.875C707.956 67.1875 709.956 66.3438 712.269 66.3438C714.581 66.3438 716.55 67.1875 718.175 68.875C719.862 70.5 720.706 72.4688 720.706 74.7812C720.706 77.0938 719.862 79.0938 718.175 80.7812C716.55 82.4062 714.581 83.2188 712.269 83.2188C709.956 83.2188 707.956 82.4062 706.269 80.7812Z" fill="#956BAC"/>
</g>
<defs>
<filter id="filter0_d_36_71" x="0.03125" y="0.4375" width="727.675" height="90.1875" filterUnits="userSpaceOnUse" color-interpolation-filters="sRGB">
<feFlood flood-opacity="0" result="BackgroundImageFix"/>
<feColorMatrix in="SourceAlpha" type="matrix" values="0 0 0 0 0 0 0 0 0 0 0 0 0 0 0 0 0 0 127 0" result="hardAlpha"/>
<feOffset dx="7" dy="-6"/>
<feComposite in2="hardAlpha" operator="out"/>
<feColorMatrix type="matrix" values="0 0 0 0 1 0 0 0 0 1 0 0 0 0 1 0 0 0 0.73 0"/>
<feBlend mode="normal" in2="BackgroundImageFix" result="effect1_dropShadow_36_71"/>
<feBlend mode="normal" in="SourceGraphic" in2="effect1_dropShadow_36_71" result="shape"/>
</filter>
</defs>
</svg>
