<svg width="646" height="53" viewBox="0 0 646 53" fill="none" xmlns="http://www.w3.org/2000/svg">
<path d="M14.875 1.4375H24.9375V9L24.8125 8.1875C24.6458 7.47917 24.4583 6.8125 24.25 6.1875C23.9583 5.4375 23.4375 4.75 22.6875 4.125C21.1875 3.04167 18.7083 2.47917 15.25 2.4375C13.2917 2.4375 11.6458 3.5 10.3125 5.625V38.875C11.5625 40.625 13.1875 41.5208 15.1875 41.5625C18.6458 41.5208 21.125 40.9375 22.625 39.8125C23.375 39.2292 23.8958 38.5625 24.1875 37.8125C24.3958 37.2708 24.5833 36.6042 24.75 35.8125L24.875 35V42.5625H13.25C9.75 42.5625 6.85417 40.7917 4.5625 37.25C2.0625 33.4167 0.8125 28.4375 0.8125 22.3125C0.8125 16.7292 1.91667 12.0208 4.125 8.1875C6.70833 3.6875 10.2917 1.4375 14.875 1.4375ZM9 36.3125V8.375C7.66667 11.9167 6.97917 16.5625 6.9375 22.3125C6.9375 27.6042 7.5 31.9167 8.625 35.25C8.75 35.625 8.875 35.9792 9 36.3125ZM53.605 21.125V41.875C51.605 42.3333 50.1467 42.9792 49.23 43.8125C48.1883 44.7708 47.6675 45.2708 47.6675 45.3125V23.3125C47.6675 22.1458 47.2717 21.5 46.48 21.375L45.73 21.25L40.5425 23.25V41.875C38.3342 42.375 36.8758 43.0208 36.1675 43.8125L34.6675 45.3125V5.6875C34.6675 4.47917 34.2508 3.83333 33.4175 3.75L30.23 3.375C31.8967 2.875 33.2092 2.375 34.1675 1.875L37.4175 0.125C38.4175 1.41667 38.9592 2.08333 39.0425 2.125L40.5425 3.5V21.75C44.6258 20.4583 47.9383 19.125 50.48 17.75C51.5217 19.0417 52.0633 19.7083 52.105 19.75L53.605 21.125ZM74.1475 17.875C75.3558 17.875 76.335 18.3958 77.085 19.4375C78.335 19.0208 79.2517 18.5208 79.835 17.9375C80.0017 17.7708 80.5225 17.2708 81.3975 16.4375L81.335 39.0625V40.0625C80.0017 40.3542 78.9808 40.6875 78.2725 41.0625C77.8142 41.3125 77.3767 41.625 76.96 42L75.7725 43.0625L75.3975 43.5C75.3142 43.0833 75.1475 42.75 74.8975 42.5C74.8142 42.4167 74.585 42.3125 74.21 42.1875C73.8767 42.0625 73.6058 42 73.3975 42H73.0225C69.9392 42 67.71 41.4167 66.335 40.25C64.8767 39 63.8975 37.5833 63.3975 36C62.8975 34.375 62.6475 32.2708 62.6475 29.6875C62.6475 25.2292 63.8975 21.9375 66.3975 19.8125C67.9392 18.5208 70.5225 17.875 74.1475 17.875ZM68.3975 30.5C68.3975 33.9583 68.7308 36.6458 69.3975 38.5625C70.0642 40.4792 70.8975 41.4375 71.8975 41.4375C72.9392 41.4375 73.7933 40.5417 74.46 38.75C75.1683 36.9167 75.5225 34.1667 75.5225 30.5V20.8125C75.2308 20.1458 74.9808 19.75 74.7725 19.625L73.6475 18.9375H71.8975C69.5642 18.9375 68.3975 22.7917 68.3975 30.5ZM98.44 19.6875C99.6067 19.3542 100.794 18.9167 102.003 18.375C103.211 17.7917 104.107 17.2917 104.69 16.875L105.565 16.375L108.94 19.875L110.065 23.125C109.023 23.3333 108.211 23.6875 107.628 24.1875C106.919 24.7292 106.357 25.4792 105.94 26.4375L105.378 29.125L105.065 27.375C104.273 24.0833 103.315 22.0208 102.19 21.1875C100.94 20.1875 99.69 19.6875 98.44 19.6875ZM98.44 19.6875V40.75C97.1067 41.0417 96.0858 41.3958 95.3775 41.8125C94.9608 42.0208 94.5233 42.3125 94.065 42.6875L93.0025 43.75L92.565 44.1875V21.875C92.565 20.6667 92.1483 20 91.315 19.875L88.1275 19.5C89.7942 19.0417 91.1067 18.5417 92.065 18L95.315 16.3125C96.315 17.5208 96.8567 18.1667 96.94 18.25L98.44 19.6875ZM127.232 17.875C128.441 17.875 129.42 18.3958 130.17 19.4375C131.42 19.0208 132.337 18.5208 132.92 17.9375C133.087 17.7708 133.607 17.2708 134.482 16.4375L134.42 39.0625V40.0625C133.087 40.3542 132.066 40.6875 131.357 41.0625C130.899 41.3125 130.462 41.625 130.045 42L128.857 43.0625L128.482 43.5C128.399 43.0833 128.232 42.75 127.982 42.5C127.899 42.4167 127.67 42.3125 127.295 42.1875C126.962 42.0625 126.691 42 126.482 42H126.107C123.024 42 120.795 41.4167 119.42 40.25C117.962 39 116.982 37.5833 116.482 36C115.982 34.375 115.732 32.2708 115.732 29.6875C115.732 25.2292 116.982 21.9375 119.482 19.8125C121.024 18.5208 123.607 17.875 127.232 17.875ZM121.482 30.5C121.482 33.9583 121.816 36.6458 122.482 38.5625C123.149 40.4792 123.982 41.4375 124.982 41.4375C126.024 41.4375 126.878 40.5417 127.545 38.75C128.253 36.9167 128.607 34.1667 128.607 30.5V20.8125C128.316 20.1458 128.066 19.75 127.857 19.625L126.732 18.9375H124.982C122.649 18.9375 121.482 22.7917 121.482 30.5ZM153.462 23.125C154.254 23.125 154.879 22.9583 155.337 22.625C156.296 21.7917 156.608 20.8333 156.275 19.75C155.858 18.5833 155.275 18 154.525 18H152.712C150.421 18 149.275 21.9167 149.275 29.75C149.275 34.75 149.587 37.7083 150.212 38.625C151.212 40.1667 152.462 40.9583 153.962 41C155.462 41 156.733 40.5 157.775 39.5C158.858 38.5 159.462 37.7917 159.587 37.375L160.4 34.5V42H153.837C150.754 42 148.504 41.4167 147.087 40.25C145.671 39.0417 144.712 37.5208 144.212 35.6875C143.712 33.8125 143.462 31.5625 143.462 28.9375C143.462 24.3542 144.712 21.0208 147.212 18.9375C148.754 17.6458 150.483 17 152.4 17C157.358 17.0417 160.587 19.0417 162.087 23L159.15 26.125C157.358 24.7917 155.462 23.7917 153.462 23.125ZM174.693 18.9375V15.125C174.693 13.9167 174.276 13.2708 173.443 13.1875L170.255 12.8125C171.922 12.3542 173.234 11.8542 174.193 11.3125L177.443 9.5625C178.443 10.7708 178.984 11.4167 179.068 11.5L180.568 12.9375V18.9375H186.068V20.3125H180.568V41.375C179.234 41.6667 178.213 42.0208 177.505 42.4375C177.088 42.6458 176.651 42.9375 176.193 43.3125C176.193 43.3125 175.838 43.6667 175.13 44.375L174.693 44.8125V20.3125H169.568V18.9375H174.693ZM211.298 16.875V28.8125C209.214 29.2708 207.756 29.9167 206.923 30.75L205.423 32.25V29.5H199.36C199.36 34.625 199.673 37.6667 200.298 38.625C201.298 40.2083 202.548 41 204.048 41C205.589 41 206.881 40.5 207.923 39.5C208.964 38.5417 209.548 37.8333 209.673 37.375L210.548 34.5V42H203.923C201.256 42 198.86 41.3125 196.735 39.9375C194.61 38.5625 193.548 35.1667 193.548 29.75C193.548 24.2917 194.798 20.6458 197.298 18.8125C199.048 17.5208 201.214 16.875 203.798 16.875H211.298ZM199.36 28.125H205.423V17.875H202.798C200.673 17.875 199.527 21.2917 199.36 28.125ZM226.215 19.6875C227.382 19.3542 228.569 18.9167 229.777 18.375C230.986 17.7917 231.882 17.2917 232.465 16.875L233.34 16.375L236.715 19.875L237.84 23.125C236.798 23.3333 235.986 23.6875 235.402 24.1875C234.694 24.7292 234.132 25.4792 233.715 26.4375L233.152 29.125L232.84 27.375C232.048 24.0833 231.09 22.0208 229.965 21.1875C228.715 20.1875 227.465 19.6875 226.215 19.6875ZM226.215 19.6875V40.75C224.882 41.0417 223.861 41.3958 223.152 41.8125C222.736 42.0208 222.298 42.3125 221.84 42.6875L220.777 43.75L220.34 44.1875V21.875C220.34 20.6667 219.923 20 219.09 19.875L215.902 19.5C217.569 19.0417 218.882 18.5417 219.84 18L223.09 16.3125C224.09 17.5208 224.632 18.1667 224.715 18.25L226.215 19.6875ZM284.425 1.4375H294.487V9L294.362 8.1875C294.196 7.47917 294.008 6.8125 293.8 6.1875C293.508 5.4375 292.987 4.75 292.237 4.125C290.737 3.04167 288.258 2.47917 284.8 2.4375C282.842 2.4375 281.196 3.5 279.862 5.625V38.875C281.112 40.625 282.737 41.5208 284.737 41.5625C288.196 41.5208 290.675 40.9375 292.175 39.8125C292.925 39.2292 293.446 38.5625 293.737 37.8125C293.946 37.2708 294.133 36.6042 294.3 35.8125L294.425 35V42.5625H282.8C279.3 42.5625 276.404 40.7917 274.112 37.25C271.612 33.4167 270.362 28.4375 270.362 22.3125C270.362 16.7292 271.467 12.0208 273.675 8.1875C276.258 3.6875 279.842 1.4375 284.425 1.4375ZM278.55 36.3125V8.375C277.217 11.9167 276.529 16.5625 276.487 22.3125C276.487 27.6042 277.05 31.9167 278.175 35.25C278.3 35.625 278.425 35.9792 278.55 36.3125ZM317.217 29.625C317.217 26.25 316.717 23.5833 315.717 21.625C314.759 19.625 313.655 18.6458 312.405 18.6875C311.155 18.7292 310.03 19.7292 309.03 21.6875C308.072 23.6042 307.592 26.2292 307.592 29.5625C307.592 37.0208 309.197 40.7708 312.405 40.8125C315.613 40.8125 317.217 37.0833 317.217 29.625ZM304.405 21.625C306.405 18.9583 309.051 17.625 312.342 17.625C315.634 17.625 318.259 18.9375 320.217 21.5625C321.926 23.8125 322.78 26.5625 322.78 29.8125C322.78 32.5208 322.113 34.9583 320.78 37.125C318.863 40.375 316.072 41.9583 312.405 41.875C309.197 41.875 306.655 40.7083 304.78 38.375C302.988 36.1667 302.072 33.3125 302.03 29.8125C302.03 26.6042 302.822 23.875 304.405 21.625ZM339.885 37.0625C340.552 35.4792 338.927 33.2292 335.01 30.3125C332.968 28.7708 331.531 27.3125 330.698 25.9375C329.114 23.2708 329.406 20.9375 331.573 18.9375C332.989 17.6458 334.698 17 336.698 17C341.323 17.0417 344.552 19.4583 346.385 24.25L343.448 27.375C341.656 26.0417 339.76 25.0417 337.76 24.375C338.552 24.375 339.177 24.2083 339.635 23.875C340.802 23.0417 341.114 21.6875 340.573 19.8125C340.239 18.6042 339.052 18 337.01 18C335.635 18 334.739 18.3125 334.323 18.9375C333.448 20.1042 333.781 22.0417 335.323 24.75C335.989 25.9167 338.323 28.0208 342.323 31.0625C344.323 32.6042 345.323 33.9792 345.323 35.1875C345.323 37.9792 344.135 39.7083 341.76 40.375C340.302 40.7917 338.468 41 336.26 41H329.698V33.5L330.51 36.375C330.635 36.8333 331.218 37.5417 332.26 38.5C333.343 39.5 334.614 40 336.073 40C337.781 40 339.052 39.0208 339.885 37.0625ZM360.177 18.9375V15.125C360.177 13.9167 359.761 13.2708 358.927 13.1875L355.74 12.8125C357.407 12.3542 358.719 11.8542 359.677 11.3125L362.927 9.5625C363.927 10.7708 364.469 11.4167 364.552 11.5L366.052 12.9375V18.9375H371.552V20.3125H366.052V41.375C364.719 41.6667 363.698 42.0208 362.99 42.4375C362.573 42.6458 362.136 42.9375 361.677 43.3125C361.677 43.3125 361.323 43.6667 360.615 44.375L360.177 44.8125V20.3125H355.052V18.9375H360.177ZM381.22 21.875C381.22 20.6667 380.803 20 379.97 19.875L376.783 19.5C378.366 19.0833 379.678 18.5833 380.72 18L383.97 16.3125C384.97 17.5208 385.512 18.1667 385.595 18.25L387.095 19.6875V38.625C387.095 39.8333 387.512 40.5 388.345 40.625L389.095 40.6875L394.22 38.6875V21.875C394.22 20.6667 393.824 20 393.033 19.875L389.845 19.5C391.512 19.0417 392.824 18.5417 393.783 18L397.033 16.3125C398.033 17.5208 398.574 18.1667 398.658 18.25L400.158 19.6875V40.75C398.824 41.0417 397.803 41.3958 397.095 41.8125C396.678 42.0208 396.241 42.3125 395.783 42.6875L394.72 43.75L394.22 44.1875V40.1875C390.137 41.4792 386.845 42.8125 384.345 44.1875C383.345 42.9792 382.803 42.3333 382.72 42.25L381.22 40.8125V21.875ZM436.075 19.6875V40.75C434.742 41.0417 433.721 41.3958 433.013 41.8125C432.596 42.0208 432.158 42.3125 431.7 42.6875C431.533 42.8542 431.158 43.2083 430.575 43.75L430.138 44.1875V21.875C430.138 20.6667 429.742 20 428.95 19.875L426.638 19.625L426.7 19.6875V40.75C425.367 41.0417 424.346 41.3958 423.638 41.8125C423.221 42.0208 422.783 42.3125 422.325 42.6875C422.158 42.8542 421.783 43.2083 421.2 43.75L420.763 44.1875V21.875C420.763 20.6667 420.367 20 419.575 19.875L417.263 19.625L417.325 19.6875V40.75C415.992 41.0417 414.971 41.3958 414.263 41.8125C413.846 42.0208 413.408 42.3125 412.95 42.6875C412.783 42.8542 412.408 43.2083 411.825 43.75L411.388 44.1875V21.875C411.388 20.6667 410.992 20 410.2 19.875L406.95 19.5C408.533 19.0833 409.867 18.5833 410.95 18L414.138 16.3125C415.138 17.5208 415.7 18.1667 415.825 18.25L416.95 19.3125C418.367 18.8958 419.492 18.4583 420.325 18L423.513 16.3125C424.513 17.5208 425.075 18.1667 425.2 18.25L426.325 19.3125C427.742 18.8958 428.867 18.4583 429.7 18L432.888 16.3125C433.888 17.5208 434.45 18.1667 434.575 18.25L436.075 19.6875ZM462.867 16.875V28.8125C460.784 29.2708 459.326 29.9167 458.492 30.75L456.992 32.25V29.5H450.93C450.93 34.625 451.242 37.6667 451.867 38.625C452.867 40.2083 454.117 41 455.617 41C457.159 41 458.451 40.5 459.492 39.5C460.534 38.5417 461.117 37.8333 461.242 37.375L462.117 34.5V42H455.492C452.826 42 450.43 41.3125 448.305 39.9375C446.18 38.5625 445.117 35.1667 445.117 29.75C445.117 24.2917 446.367 20.6458 448.867 18.8125C450.617 17.5208 452.784 16.875 455.367 16.875H462.867ZM450.93 28.125H456.992V17.875H454.367C452.242 17.875 451.097 21.2917 450.93 28.125ZM520.765 0.5625V27.375C520.765 31.2083 520.348 34.4583 519.515 37.125C519.015 38.7083 517.703 40.1458 515.578 41.4375C514.536 42.0208 512.848 42.3125 510.515 42.3125H503.828C502.161 42.7292 500.807 43.3542 499.765 44.1875C499.765 44.1875 499.265 44.6875 498.265 45.6875V3.5625C498.265 2.27083 497.848 1.625 497.015 1.625H494.765V0.5625H520.765ZM510.265 41C511.223 41 511.807 40.9167 512.015 40.75C512.265 40.5417 512.807 39.8958 513.64 38.8125C514.515 37.6875 514.953 35.8125 514.953 33.1875V3.5C514.619 2.79167 514.369 2.375 514.203 2.25L513.078 1.625H507.515V41H510.265ZM506.203 41V1.625H506.015C505.39 1.875 505.015 2.08333 504.89 2.25L504.14 3.5V39.125L504.89 40.3125C505.015 40.5208 505.39 40.75 506.015 41H506.203ZM547.807 16.875V28.8125C545.724 29.2708 544.266 29.9167 543.432 30.75L541.932 32.25V29.5H535.87C535.87 34.625 536.182 37.6667 536.807 38.625C537.807 40.2083 539.057 41 540.557 41C542.099 41 543.391 40.5 544.432 39.5C545.474 38.5417 546.057 37.8333 546.182 37.375L547.057 34.5V42H540.432C537.766 42 535.37 41.3125 533.245 39.9375C531.12 38.5625 530.057 35.1667 530.057 29.75C530.057 24.2917 531.307 20.6458 533.807 18.8125C535.557 17.5208 537.724 16.875 540.307 16.875H547.807ZM535.87 28.125H541.932V17.875H539.307C537.182 17.875 536.037 21.2917 535.87 28.125ZM564.912 37.0625C565.579 35.4792 563.954 33.2292 560.037 30.3125C557.996 28.7708 556.558 27.3125 555.725 25.9375C554.142 23.2708 554.433 20.9375 556.6 18.9375C558.017 17.6458 559.725 17 561.725 17C566.35 17.0417 569.579 19.4583 571.412 24.25L568.475 27.375C566.683 26.0417 564.787 25.0417 562.787 24.375C563.579 24.375 564.204 24.2083 564.662 23.875C565.829 23.0417 566.142 21.6875 565.6 19.8125C565.267 18.6042 564.079 18 562.037 18C560.662 18 559.767 18.3125 559.35 18.9375C558.475 20.1042 558.808 22.0417 560.35 24.75C561.017 25.9167 563.35 28.0208 567.35 31.0625C569.35 32.6042 570.35 33.9792 570.35 35.1875C570.35 37.9792 569.162 39.7083 566.787 40.375C565.329 40.7917 563.496 41 561.287 41H554.725V33.5L555.537 36.375C555.662 36.8333 556.246 37.5417 557.287 38.5C558.371 39.5 559.642 40 561.1 40C562.808 40 564.079 39.0208 564.912 37.0625ZM577.518 5.6875C578.684 5.35417 579.851 4.91667 581.018 4.375C582.226 3.83333 583.122 3.35417 583.705 2.9375L584.643 2.4375L588.018 5.9375L589.143 9.1875C588.101 9.39583 587.268 9.72917 586.643 10.1875C585.934 10.7292 585.393 11.4792 585.018 12.4375L584.393 15.1875L584.08 13.4375C583.288 10.1458 582.351 8.0625 581.268 7.1875C580.018 6.1875 578.768 5.6875 577.518 5.6875ZM587.58 20.9375V42C586.247 42.2917 585.205 42.6458 584.455 43.0625C584.038 43.2708 583.622 43.5625 583.205 43.9375C583.038 44.1042 582.663 44.4583 582.08 45L581.643 45.4375V23.125C581.643 21.9167 581.247 21.2708 580.455 21.1875L577.205 20.8125C578.872 20.3542 580.205 19.8542 581.205 19.3125L584.393 17.5625C585.393 18.7708 585.955 19.4167 586.08 19.5L587.58 20.9375ZM602.435 28.3125C602.435 35.8125 603.581 39.5625 605.872 39.5625C607.872 39.5625 609.018 36.8333 609.31 31.375V25.75C609.185 23.6667 608.893 21.8958 608.435 20.4375C607.768 18.4375 606.914 17.4375 605.872 17.4375C604.872 17.4375 604.039 18.5 603.372 20.625C602.747 22.7083 602.435 25.2708 602.435 28.3125ZM608.935 40.8125L608.81 40.5625C608.602 40.2708 607.914 40.0833 606.747 40C603.747 39.9167 601.622 39.375 600.372 38.375C597.872 36.375 596.622 33.2917 596.622 29.125C596.622 26.9167 596.872 24.9375 597.372 23.1875C597.872 21.3958 598.81 19.9167 600.185 18.75C601.602 17.5417 603.872 16.9375 606.997 16.9375H607.372C609.039 16.9375 610.227 17.4583 610.935 18.5C612.06 18.125 612.977 17.625 613.685 17C613.852 16.8333 614.372 16.3333 615.247 15.5V31.9375C615.247 36.4792 614.352 40.5833 612.56 44.25C610.768 48.0417 608.206 50.9375 604.872 52.9375L604.747 52.6875C605.956 50.6042 606.81 48.9583 607.31 47.75C607.81 46.5833 608.268 44.8542 608.685 42.5625C608.768 42.0208 608.852 41.4375 608.935 40.8125ZM645.415 19.6875V40.75C644.082 41.0417 643.061 41.3958 642.352 41.8125C641.936 42.0208 641.498 42.3125 641.04 42.6875L639.977 43.75L639.477 44.1875V21.875C639.477 20.6667 639.082 20 638.29 19.875L637.54 19.8125L632.352 21.8125V40.75C631.019 41.0417 629.998 41.3958 629.29 41.8125C628.873 42.0208 628.436 42.3125 627.977 42.6875L626.915 43.75L626.477 44.1875V21.875C626.477 20.6667 626.061 20 625.227 19.875L622.04 19.5C623.707 19.0417 625.019 18.5417 625.977 18L629.227 16.3125C630.227 17.5208 630.769 18.1667 630.852 18.25L632.352 19.6875V20.3125C636.436 19.0208 639.748 17.6875 642.29 16.3125C643.29 17.5208 643.832 18.1667 643.915 18.25L645.415 19.6875Z" fill="url(#paint0_linear_84_22)"/>
<defs>
<linearGradient id="paint0_linear_84_22" x1="357" y1="43" x2="357" y2="-12" gradientUnits="userSpaceOnUse">
<stop stop-color="#956BAC"/>
<stop offset="1" stop-color="#3D2C46"/>
</linearGradient>
</defs>
</svg>
