<svg width="123" height="45" viewBox="0 0 123 45" fill="none" xmlns="http://www.w3.org/2000/svg">
<path d="M21.0968 6.8864C20.492 6.28689 19.7715 5.81136 18.9774 5.48751C18.1833 5.16365 17.3314 4.99794 16.4714 5.00002C15.6113 4.99794 14.7594 5.16365 13.9653 5.48751C13.1712 5.81136 12.4508 6.28689 11.846 6.8864L11.477 7.2611L11.108 6.89932C9.88471 5.70005 8.22565 5.02632 6.49575 5.02632C4.76584 5.02632 3.10678 5.70005 1.88349 6.89932C0.676223 8.10692 0 9.7305 0 11.4215C0 13.1125 0.676223 14.736 1.88349 15.9436L10.8049 24.7166C10.9902 24.8981 11.2414 25 11.5033 25C11.7652 25 12.0164 24.8981 12.2018 24.7166L21.1232 15.9436C22.3309 14.7321 23.0049 13.1038 23 11.4097C22.995 9.71561 22.3116 8.09119 21.0968 6.8864Z" fill="#956BAC"/>
<path d="M33.28 22.9C33.28 22.98 33.2 23.08 33.04 23.2C32.8933 23.32 32.6933 23.42 32.44 23.5C32.1867 23.5933 31.9067 23.64 31.6 23.64H31.26V7.86V6.92L33.36 7.86H36.12V8.42H33.28V22.9ZM36.28 20.54V21.12H32.3V20.54H36.28ZM36.26 11.96V12.52H32.3V11.96H36.26ZM36.24 16.2V16.78H32.28V16.2H36.24ZM34.86 7.86L35.86 6.74L37.86 8.36C37.8067 8.42667 37.7133 8.5 37.58 8.58C37.4467 8.64667 37.2867 8.7 37.1 8.74V22.1C37.1 22.1533 37 22.2333 36.8 22.34C36.6133 22.4333 36.3867 22.52 36.12 22.6C35.8667 22.68 35.62 22.72 35.38 22.72H35.06V7.86H34.86ZM41.76 16.38C42.5333 16.4333 43.1333 16.56 43.56 16.76C43.9867 16.9467 44.2733 17.1667 44.42 17.42C44.5667 17.6733 44.6133 17.92 44.56 18.16C44.5067 18.4 44.3733 18.6 44.16 18.76C43.9467 18.92 43.6933 19.0067 43.4 19.02C43.12 19.02 42.8267 18.9 42.52 18.66C42.5067 18.2733 42.4067 17.88 42.22 17.48C42.0333 17.08 41.82 16.7533 41.58 16.5L41.76 16.38ZM41.12 16.62C41.12 16.6867 41.0267 16.78 40.84 16.9C40.6667 17.0067 40.4333 17.1067 40.14 17.2C39.86 17.28 39.5667 17.32 39.26 17.32H38.94V10.16V9.24L41.22 10.16H46.56V10.72H41.12V16.62ZM44.16 20.02C45.3467 20.3 46.2933 20.62 47 20.98C47.72 21.3267 48.2467 21.6867 48.58 22.06C48.9267 22.42 49.1267 22.7667 49.18 23.1C49.2333 23.4467 49.1867 23.7467 49.04 24C48.9067 24.2533 48.7067 24.44 48.44 24.56C48.1867 24.68 47.92 24.7 47.64 24.62C47.36 24.5533 47.1133 24.3733 46.9 24.08C46.7133 23.5467 46.38 22.9333 45.9 22.24C45.42 21.5467 44.7867 20.8933 44 20.28L44.16 20.02ZM43.6 20.68C43.56 20.8 43.4667 20.9 43.32 20.98C43.1733 21.06 42.94 21.1067 42.62 21.12C42.22 21.5733 41.7133 22.0267 41.1 22.48C40.5 22.9333 39.82 23.3533 39.06 23.74C38.3133 24.1267 37.5133 24.4533 36.66 24.72L36.52 24.52C37.1333 24.1067 37.6933 23.6267 38.2 23.08C38.72 22.5333 39.1733 21.9667 39.56 21.38C39.96 20.7933 40.2667 20.2467 40.48 19.74L43.6 20.68ZM45.18 10.16L46.22 9.06L48.34 10.68C48.2867 10.7467 48.1933 10.82 48.06 10.9C47.9267 10.9667 47.7667 11.02 47.58 11.06V16.26C47.58 16.3133 47.48 16.3933 47.28 16.5C47.08 16.6067 46.84 16.7067 46.56 16.8C46.28 16.88 46.0133 16.92 45.76 16.92H45.38V10.16H45.18ZM46.58 15.6V16.18H40.34V15.6H46.58ZM46.56 12.86V13.44H40.34V12.86H46.56ZM39.28 6.36C39.5867 7.2 39.7533 7.9 39.78 8.46C39.8067 9.02 39.7467 9.46667 39.6 9.8C39.4533 10.1333 39.2533 10.3667 39 10.5C38.76 10.62 38.5133 10.6667 38.26 10.64C38.02 10.6 37.82 10.4933 37.66 10.32C37.5 10.1467 37.42 9.92667 37.42 9.66C37.42 9.39333 37.56 9.09333 37.84 8.76C38.1733 8.6 38.4467 8.32667 38.66 7.94C38.8733 7.55333 38.9867 7.02667 39 6.36H39.28ZM47.72 7.52V8.08H39.2V7.52H47.72ZM47.22 17.36C47.22 17.36 47.2933 17.42 47.44 17.54C47.5867 17.66 47.7733 17.82 48 18.02C48.2267 18.2067 48.46 18.4067 48.7 18.62C48.9533 18.8333 49.1733 19.0333 49.36 19.22C49.32 19.4333 49.14 19.54 48.82 19.54H37.52L37.36 18.96H46.04L47.22 17.36ZM46.6 7.52L47.76 6.36L49.76 8.3C49.68 8.36667 49.5867 8.42 49.48 8.46C49.3733 8.48667 49.2133 8.50667 49 8.52C48.7333 8.74667 48.3933 9.02 47.98 9.34C47.58 9.64667 47.2267 9.9 46.92 10.1L46.72 9.98C46.7333 9.76667 46.7467 9.50667 46.76 9.2C46.7733 8.89333 46.7867 8.59333 46.8 8.3C46.8133 7.99333 46.82 7.73333 46.82 7.52H46.6ZM62.72 20.56C64.72 20.6667 66.38 20.84 67.7 21.08C69.02 21.32 70.06 21.5933 70.82 21.9C71.5933 22.1933 72.1333 22.5 72.44 22.82C72.7467 23.1267 72.8867 23.4133 72.86 23.68C72.8333 23.96 72.6933 24.1867 72.44 24.36C72.1867 24.5467 71.88 24.6533 71.52 24.68C71.16 24.72 70.8 24.6533 70.44 24.48C69.92 24.08 69.2467 23.66 68.42 23.22C67.6067 22.7933 66.6733 22.38 65.62 21.98C64.5667 21.5667 63.42 21.2 62.18 20.88L62.72 20.56ZM62.2 20.88C62.44 20.5733 62.72 20.18 63.04 19.7C63.36 19.22 63.6733 18.72 63.98 18.2C64.2867 17.6667 64.5667 17.1667 64.82 16.7C65.0867 16.2333 65.2867 15.8533 65.42 15.56L68.34 16.2C68.3 16.3333 68.2 16.4467 68.04 16.54C67.8933 16.6333 67.5867 16.6667 67.12 16.64L67.62 16.32C67.4067 16.6933 67.12 17.1733 66.76 17.76C66.4 18.3333 66.02 18.92 65.62 19.52C65.22 20.12 64.8467 20.6467 64.5 21.1L62.2 20.88ZM68.94 6.38C68.9267 6.51333 68.8667 6.63333 68.76 6.74C68.6533 6.83333 68.4667 6.9 68.2 6.94V14.98C68.2 15.0333 68.1067 15.1067 67.92 15.2C67.7333 15.2933 67.5 15.38 67.22 15.46C66.94 15.5267 66.6533 15.56 66.36 15.56H65.96V6.12L68.94 6.38ZM62.36 6.88C63.1333 7.09333 63.7333 7.36 64.16 7.68C64.5867 7.98667 64.88 8.3 65.04 8.62C65.2 8.94 65.2533 9.23333 65.2 9.5C65.16 9.76667 65.0467 9.98667 64.86 10.16C64.6733 10.32 64.4467 10.4 64.18 10.4C63.9267 10.4 63.6533 10.28 63.36 10.04C63.3467 9.69333 63.28 9.34 63.16 8.98C63.04 8.60667 62.8933 8.25333 62.72 7.92C62.5467 7.57333 62.36 7.26667 62.16 7L62.36 6.88ZM72.54 7.84C72.5133 7.93333 72.44 8.02 72.32 8.1C72.2 8.18 72.0267 8.20667 71.8 8.18C71.5067 8.47333 71.0867 8.83333 70.54 9.26C69.9933 9.67333 69.4533 10.0533 68.92 10.4L68.74 10.3C68.8867 9.95333 69.0333 9.56667 69.18 9.14C69.34 8.7 69.4733 8.28 69.58 7.88C69.7 7.46667 69.7933 7.12667 69.86 6.86L72.54 7.84ZM68.2 10.76C68.56 11.2 69.02 11.6 69.58 11.96C70.14 12.32 70.7533 12.6267 71.42 12.88C72.1 13.12 72.76 13.3067 73.4 13.44L73.36 13.66C72.6 13.86 72.0933 14.4933 71.84 15.56C71.2533 15.24 70.7133 14.8533 70.22 14.4C69.74 13.9467 69.3067 13.4267 68.92 12.84C68.5467 12.2533 68.2267 11.6067 67.96 10.9L68.2 10.76ZM71.32 17.88C71.0267 18.9467 70.6267 19.88 70.12 20.68C69.6133 21.4667 68.94 22.1333 68.1 22.68C67.2733 23.2267 66.2333 23.6667 64.98 24C63.7267 24.3467 62.1933 24.62 60.38 24.82L60.3 24.5C62.0867 24.1 63.5733 23.6067 64.76 23.02C65.9467 22.4333 66.88 21.7 67.56 20.82C68.24 19.94 68.7133 18.8533 68.98 17.56H71.32V17.88ZM67.6 11.08C67.04 12.0533 66.26 12.9067 65.26 13.64C64.26 14.3733 63.1467 14.9867 61.92 15.48L61.74 15.2C62.5 14.6267 63.16 13.9467 63.72 13.16C64.2933 12.3733 64.7467 11.5733 65.08 10.76H67.6V11.08ZM71.48 16.08C71.48 16.08 71.5933 16.1733 71.82 16.36C72.0467 16.5467 72.3133 16.7733 72.62 17.04C72.9267 17.3067 73.2067 17.56 73.46 17.8C73.4067 18.0133 73.2267 18.12 72.92 18.12H60.98L60.82 17.56H70.38L71.48 16.08ZM71.28 9.34C71.28 9.34 71.3933 9.43333 71.62 9.62C71.86 9.79333 72.14 10.0067 72.46 10.26C72.78 10.5133 73.0667 10.76 73.32 11C73.2667 11.2133 73.0867 11.32 72.78 11.32H62.14L61.98 10.76H70.18L71.28 9.34ZM59.02 12.92C59.82 13.2133 60.4467 13.5467 60.9 13.92C61.3533 14.28 61.6667 14.64 61.84 15C62.0267 15.36 62.1067 15.6933 62.08 16C62.0533 16.2933 61.9467 16.5333 61.76 16.72C61.5867 16.9067 61.3667 17.0067 61.1 17.02C60.8333 17.02 60.5533 16.9 60.26 16.66C60.22 16.26 60.12 15.84 59.96 15.4C59.8 14.96 59.62 14.54 59.42 14.14C59.22 13.7267 59.0133 13.36 58.8 13.04L59.02 12.92ZM59.98 6.24C59.9667 6.38667 59.9067 6.51333 59.8 6.62C59.6933 6.71333 59.5133 6.78 59.26 6.82V24.08C59.26 24.1467 59.1667 24.2333 58.98 24.34C58.8067 24.46 58.5933 24.5667 58.34 24.66C58.0867 24.7533 57.82 24.8 57.54 24.8H57.12V5.96L59.98 6.24ZM59.1 11.24C58.7667 13 58.2133 14.6333 57.44 16.14C56.68 17.6333 55.7 18.9667 54.5 20.14L54.24 19.92C54.7333 19.0933 55.1533 18.1867 55.5 17.2C55.8467 16.2133 56.1333 15.1867 56.36 14.12C56.6 13.0533 56.7867 11.9867 56.92 10.92H59.1V11.24ZM60.34 9.44C60.34 9.44 60.44 9.54 60.64 9.74C60.8533 9.92667 61.1 10.1533 61.38 10.42C61.66 10.6867 61.9067 10.94 62.12 11.18C62.08 11.3933 61.9067 11.5 61.6 11.5H54.62L54.46 10.92H59.34L60.34 9.44ZM88.14 7.32H94.5V7.88H88.14V7.32ZM87 7.32V6.36L89.48 7.32H89.2V24.08C89.2 24.1333 89.1267 24.2133 88.98 24.32C88.8467 24.44 88.64 24.5467 88.36 24.64C88.0933 24.7467 87.7733 24.8 87.4 24.8H87V7.32ZM88.18 13.94H94.8V14.52H88.36L88.18 13.94ZM93.9 13.94H93.7L94.88 12.74L96.96 14.5C96.8933 14.6067 96.8067 14.68 96.7 14.72C96.5933 14.76 96.4267 14.7933 96.2 14.82C95.9333 16.0467 95.5333 17.2533 95 18.44C94.48 19.6267 93.7733 20.7267 92.88 21.74C91.9867 22.7533 90.8467 23.6267 89.46 24.36L89.28 24.12C90.2267 23.28 91.0133 22.3133 91.64 21.22C92.2667 20.1133 92.76 18.94 93.12 17.7C93.4933 16.4467 93.7533 15.1933 93.9 13.94ZM90.38 13.98C90.5933 15.1667 90.9133 16.2133 91.34 17.12C91.78 18.0267 92.3067 18.82 92.92 19.5C93.5333 20.1667 94.2133 20.74 94.96 21.22C95.72 21.7 96.5267 22.1133 97.38 22.46L97.34 22.7C96.8467 22.7667 96.4133 22.9667 96.04 23.3C95.68 23.6467 95.4 24.1 95.2 24.66C94.4533 24.1133 93.7933 23.52 93.22 22.88C92.66 22.24 92.1667 21.5067 91.74 20.68C91.3267 19.8533 90.9867 18.9 90.72 17.82C90.4533 16.74 90.24 15.5067 90.08 14.12L90.38 13.98ZM79.46 7.32V7.12V6.4L81.94 7.32H81.6V13.12C81.6 14.0267 81.58 14.9867 81.54 16C81.5 17.0133 81.38 18.04 81.18 19.08C80.98 20.12 80.66 21.1267 80.22 22.1C79.7933 23.0733 79.1867 23.9733 78.4 24.8L78.16 24.66C78.6 23.5133 78.9067 22.2933 79.08 21C79.2667 19.7067 79.3733 18.3867 79.4 17.04C79.44 15.6933 79.46 14.3867 79.46 13.12V7.32ZM80.48 7.32H84.4V7.88H80.48V7.32ZM80.48 11.94H84.4V12.5H80.48V11.94ZM80.48 16.68H84.4V17.24H80.48V16.68ZM83.42 7.32H83.22L84.24 6.16L86.36 7.82C86.3067 7.88667 86.2133 7.96 86.08 8.04C85.96 8.10667 85.8067 8.15333 85.62 8.18V22.06C85.62 22.58 85.56 23.02 85.44 23.38C85.3333 23.7533 85.0867 24.0467 84.7 24.26C84.3133 24.4733 83.7267 24.62 82.94 24.7C82.9133 24.3533 82.8733 24.04 82.82 23.76C82.78 23.48 82.7 23.2667 82.58 23.12C82.4733 22.9467 82.3133 22.8 82.1 22.68C81.9 22.56 81.6 22.4667 81.2 22.4V22.1C81.2 22.1 81.28 22.1067 81.44 22.12C81.6 22.1333 81.78 22.1467 81.98 22.16C82.1933 22.1733 82.4 22.1867 82.6 22.2C82.8 22.2133 82.94 22.22 83.02 22.22C83.18 22.22 83.2867 22.1867 83.34 22.12C83.3933 22.0533 83.42 21.9533 83.42 21.82V7.32ZM93.68 7.32H93.48L94.62 6.26L96.62 7.88C96.5667 7.96 96.48 8.03333 96.36 8.1C96.24 8.15333 96.0867 8.19333 95.9 8.22C95.8867 9.02 95.8467 9.68667 95.78 10.22C95.7267 10.7533 95.6333 11.18 95.5 11.5C95.38 11.82 95.1867 12.0667 94.92 12.24C94.6667 12.4133 94.36 12.54 94 12.62C93.6533 12.6867 93.22 12.72 92.7 12.72C92.7 12.4267 92.6733 12.18 92.62 11.98C92.58 11.7667 92.48 11.5867 92.32 11.44C92.1867 11.2933 91.9733 11.1667 91.68 11.06C91.3867 10.9533 91.06 10.8667 90.7 10.8V10.54C90.9267 10.5533 91.1867 10.5667 91.48 10.58C91.7733 10.5933 92.0467 10.6133 92.3 10.64C92.5667 10.6533 92.7533 10.66 92.86 10.66C93.02 10.66 93.1333 10.6467 93.2 10.62C93.2667 10.5933 93.3267 10.56 93.38 10.52C93.4867 10.4133 93.56 10.0933 93.6 9.56C93.64 9.02667 93.6667 8.28 93.68 7.32ZM114.9 7.44L116 6.26L118.04 7.9C117.907 8.04667 117.667 8.14667 117.32 8.2V11.42C117.32 11.54 117.34 11.6267 117.38 11.68C117.42 11.72 117.513 11.74 117.66 11.74H118.28C118.4 11.74 118.513 11.74 118.62 11.74C118.74 11.74 118.833 11.7333 118.9 11.72C118.953 11.72 119.027 11.72 119.12 11.72C119.227 11.72 119.3 11.7133 119.34 11.7C119.407 11.6867 119.487 11.6733 119.58 11.66C119.673 11.6333 119.753 11.6133 119.82 11.6H120L120.1 11.64C120.38 11.76 120.567 11.8867 120.66 12.02C120.767 12.14 120.82 12.3133 120.82 12.54C120.82 12.82 120.727 13.06 120.54 13.26C120.353 13.46 120.053 13.6133 119.64 13.72C119.227 13.8133 118.673 13.86 117.98 13.86H116.9C116.367 13.86 115.973 13.8 115.72 13.68C115.467 13.56 115.3 13.3667 115.22 13.1C115.14 12.8333 115.1 12.4733 115.1 12.02V7.44H114.9ZM116.2 7.44V8.02H111.26V7.44H116.2ZM110.1 7.24V6.52L112.66 7.44H112.32V9.04C112.32 9.48 112.267 9.97333 112.16 10.52C112.067 11.0667 111.86 11.6267 111.54 12.2C111.233 12.76 110.767 13.3 110.14 13.82C109.513 14.34 108.667 14.7867 107.6 15.16L107.46 14.96C108.233 14.36 108.807 13.7267 109.18 13.06C109.553 12.38 109.8 11.7 109.92 11.02C110.04 10.3267 110.1 9.67333 110.1 9.06V7.44V7.24ZM110.22 15.24C110.593 16.4 111.133 17.3933 111.84 18.22C112.547 19.0333 113.373 19.7133 114.32 20.26C115.28 20.8067 116.327 21.2467 117.46 21.58C118.593 21.9 119.787 22.1533 121.04 22.34L121.02 22.58C120.487 22.7 120.04 22.9467 119.68 23.32C119.32 23.6933 119.067 24.1867 118.92 24.8C117.733 24.44 116.66 24.0067 115.7 23.5C114.74 23.0067 113.887 22.4 113.14 21.68C112.393 20.9467 111.753 20.0667 111.22 19.04C110.687 18.0133 110.26 16.7933 109.94 15.38L110.22 15.24ZM116.1 15.14L117.46 13.84L119.66 15.84C119.593 15.9467 119.5 16.02 119.38 16.06C119.26 16.1 119.073 16.1333 118.82 16.16C118.167 17.6133 117.3 18.92 116.22 20.08C115.14 21.24 113.807 22.2133 112.22 23C110.647 23.8 108.767 24.4 106.58 24.8L106.46 24.54C109.073 23.66 111.207 22.4133 112.86 20.8C114.527 19.1867 115.687 17.3 116.34 15.14H116.1ZM117.14 15.14V15.7H108.7L108.52 15.14H117.14ZM103.88 21.46C104.213 21.3133 104.68 21.0933 105.28 20.8C105.88 20.4933 106.553 20.14 107.3 19.74C108.047 19.34 108.807 18.9267 109.58 18.5L109.68 18.7C109.413 19.02 109.053 19.44 108.6 19.96C108.147 20.4667 107.627 21.0333 107.04 21.66C106.467 22.2867 105.833 22.9333 105.14 23.6L103.88 21.46ZM106.18 11.98L106.72 12.32V21.26L104.72 22.1L105.76 21.22C105.92 21.6867 105.973 22.1067 105.92 22.48C105.867 22.84 105.767 23.1333 105.62 23.36C105.473 23.6 105.313 23.78 105.14 23.9L103.52 21.42C103.96 21.18 104.24 20.9933 104.36 20.86C104.48 20.7133 104.54 20.5267 104.54 20.3V11.98H106.18ZM104.58 11.42L105.62 10.38L107.54 11.98C107.487 12.06 107.38 12.14 107.22 12.22C107.073 12.2867 106.853 12.3333 106.56 12.36L106.72 12.18V13.02H104.54V11.42H104.58ZM103.1 6.2C104.127 6.30667 104.953 6.5 105.58 6.78C106.22 7.04667 106.693 7.36667 107 7.74C107.307 8.1 107.48 8.45333 107.52 8.8C107.573 9.14667 107.52 9.45333 107.36 9.72C107.2 9.97333 106.967 10.14 106.66 10.22C106.367 10.2867 106.02 10.2267 105.62 10.04C105.46 9.6 105.227 9.16 104.92 8.72C104.613 8.26667 104.287 7.83333 103.94 7.42C103.593 6.99333 103.26 6.62667 102.94 6.32L103.1 6.2ZM106.12 11.42V12H102.28L102.1 11.42H106.12Z" fill="black"/>
<path d="M33.1074 36.2646C32.9466 37.3395 33.0228 38.9434 33.3359 41.0762C33.8522 40.3145 34.1738 39.5739 34.3008 38.8545C34.4362 38.152 34.4743 37.5596 34.415 37.0771L34.3643 36.709C34.3304 36.4635 34.2458 36.3324 34.1104 36.3154L33.4502 36.2393C33.7972 36.1377 34.0638 36.0361 34.25 35.9346L34.8721 35.5791L35.2402 35.9854L35.5576 36.2646L35.5703 36.5312C35.6296 37.6061 35.4518 38.5371 35.0371 39.3242C34.6224 40.1113 34.0596 40.7249 33.3486 41.165C32.7054 40.2425 32.2949 39.2523 32.1172 38.1943L31.9141 36.5947C31.8971 36.4424 31.8294 36.3493 31.7109 36.3154C31.5924 36.2816 31.3978 36.2646 31.127 36.2646H31C31.5163 36.1038 31.821 35.998 31.9141 35.9473L32.5742 35.5791C32.5742 35.6214 32.6546 35.7441 32.8154 35.9473C32.9762 36.1504 33.0736 36.2562 33.1074 36.2646ZM39.907 38.5879C40.2202 38.1647 40.4487 37.7288 40.5926 37.2803C40.7449 36.8317 40.7788 36.5059 40.6941 36.3027C40.6095 36.0996 40.5249 35.9727 40.4402 35.9219L40.2117 35.7822H40.0086C39.5431 35.7822 39.3104 36.6074 39.3104 38.2578C39.3104 39.2988 39.3738 39.9167 39.5008 40.1113C39.7039 40.4245 39.9578 40.5853 40.2625 40.5938C40.5672 40.5938 40.8296 40.4922 41.0496 40.2891C41.2612 40.0944 41.3797 39.9505 41.4051 39.8574L41.5828 39.2734V40.7969H40.2371C39.6954 40.7969 39.2173 40.6445 38.8025 40.3398C38.3455 40.0013 38.1212 39.2523 38.1297 38.0928C38.1382 37.1025 38.3921 36.3958 38.8914 35.9727C39.2046 35.7103 39.6447 35.5791 40.2117 35.5791H41.7352C41.5405 36.3324 41.3543 36.8486 41.1766 37.1279C40.8719 37.5934 40.5164 38.0166 40.1102 38.3975L39.907 38.5879ZM45.8053 36.2646C46.0423 36.1969 46.2835 36.1081 46.5289 35.998C46.7743 35.8796 46.9563 35.778 47.0748 35.6934L47.2525 35.5918L47.9381 36.3027L48.1666 36.9629C47.955 37.0052 47.79 37.0771 47.6715 37.1787C47.5276 37.2887 47.4133 37.4411 47.3287 37.6357L47.2145 38.1816L47.151 37.8262C46.9902 37.1576 46.7955 36.7386 46.567 36.5693C46.3131 36.3662 46.0592 36.2646 45.8053 36.2646ZM45.8053 36.2646V40.543C45.5344 40.6022 45.3271 40.6742 45.1832 40.7588C45.0986 40.8011 45.0097 40.8604 44.9166 40.9365L44.7008 41.1523L44.6119 41.2412V36.709C44.6119 36.4635 44.5273 36.3281 44.358 36.3027L43.7105 36.2266C44.0491 36.1335 44.3157 36.0319 44.5104 35.9219L45.1705 35.5791C45.3736 35.8245 45.4837 35.9557 45.5006 35.9727L45.8053 36.2646ZM52.4398 39.7939C52.5753 39.4723 52.2452 39.0153 51.4496 38.4229C51.0349 38.1097 50.7429 37.8135 50.5736 37.5342C50.252 36.9925 50.3113 36.5186 50.7514 36.1123C51.0391 35.8499 51.3861 35.7188 51.7924 35.7188C52.7318 35.7272 53.3878 36.2181 53.7602 37.1914L53.1635 37.8262C52.7995 37.5553 52.4145 37.3522 52.0082 37.2168C52.169 37.2168 52.296 37.1829 52.3891 37.1152C52.626 36.946 52.6895 36.6709 52.5795 36.29C52.5118 36.0446 52.2706 35.9219 51.8559 35.9219C51.5766 35.9219 51.3946 35.9854 51.31 36.1123C51.1322 36.3493 51.1999 36.7428 51.5131 37.293C51.6485 37.5299 52.1225 37.9574 52.935 38.5752C53.3412 38.8883 53.5443 39.1676 53.5443 39.4131C53.5443 39.9801 53.3031 40.3314 52.8207 40.4668C52.5245 40.5514 52.1521 40.5938 51.7035 40.5938H50.3705V39.0703L50.5355 39.6543C50.5609 39.7474 50.6794 39.8913 50.891 40.0859C51.1111 40.2891 51.3692 40.3906 51.6654 40.3906C52.0124 40.3906 52.2706 40.1917 52.4398 39.7939ZM56.0402 33.4209C56.2772 33.3532 56.5142 33.2643 56.7512 33.1543C56.9966 33.0443 57.1786 32.9469 57.2971 32.8623L57.4875 32.7607L58.173 33.4717L58.4016 34.1318C58.19 34.1742 58.0207 34.2419 57.8937 34.335C57.7499 34.445 57.6398 34.5973 57.5637 34.792L57.4367 35.3506L57.3732 34.9951C57.2124 34.3265 57.022 33.9033 56.802 33.7256C56.548 33.5225 56.2941 33.4209 56.0402 33.4209ZM58.0842 36.5186V40.7969C57.8133 40.8561 57.6018 40.9281 57.4494 41.0127C57.3648 41.055 57.2801 41.1143 57.1955 41.1904C57.1617 41.2243 57.0855 41.2962 56.967 41.4062L56.8781 41.4951V36.9629C56.8781 36.7174 56.7977 36.5863 56.6369 36.5693L55.9768 36.4932C56.3153 36.4001 56.5861 36.2985 56.7893 36.1885L57.4367 35.833C57.6398 36.0785 57.7541 36.2096 57.7795 36.2266L58.0842 36.5186ZM64.0459 38.2832C64.0459 37.5977 63.9443 37.056 63.7412 36.6582C63.5465 36.252 63.3223 36.0531 63.0684 36.0615C62.8145 36.07 62.5859 36.2731 62.3828 36.6709C62.1882 37.0602 62.0908 37.5934 62.0908 38.2705C62.0908 39.7855 62.4167 40.5472 63.0684 40.5557C63.7201 40.5557 64.0459 39.7982 64.0459 38.2832ZM61.4434 36.6582C61.8496 36.1165 62.387 35.8457 63.0557 35.8457C63.7243 35.8457 64.2575 36.1123 64.6553 36.6455C65.0023 37.1025 65.1758 37.6611 65.1758 38.3213C65.1758 38.8714 65.0404 39.3665 64.7695 39.8066C64.3802 40.4668 63.8132 40.7884 63.0684 40.7715C62.4167 40.7715 61.9004 40.5345 61.5195 40.0605C61.1556 39.612 60.9694 39.0322 60.9609 38.3213C60.9609 37.6696 61.1217 37.1152 61.4434 36.6582ZM71.8992 36.2646V40.543C71.6284 40.6022 71.421 40.6742 71.2771 40.7588C71.1925 40.8011 71.1036 40.8604 71.0105 40.9365L70.7947 41.1523L70.6932 41.2412V36.709C70.6932 36.4635 70.6128 36.3281 70.452 36.3027L70.2996 36.29L69.2459 36.6963V40.543C68.9751 40.6022 68.7677 40.6742 68.6238 40.7588C68.5392 40.8011 68.4503 40.8604 68.3572 40.9365L68.1414 41.1523L68.0525 41.2412V36.709C68.0525 36.4635 67.9679 36.3281 67.7986 36.3027L67.1512 36.2266C67.4897 36.1335 67.7563 36.0319 67.951 35.9219L68.6111 35.5791C68.8143 35.8245 68.9243 35.9557 68.9412 35.9727L69.2459 36.2646V36.3916C70.0753 36.1292 70.7482 35.8584 71.2645 35.5791C71.4676 35.8245 71.5776 35.9557 71.5945 35.9727L71.8992 36.2646Z" fill="black"/>
</svg>
